<?xml version="1.0" standalone="no"?>
<!DOCTYPE svg PUBLIC "-//W3C//DTD SVG 20010904//EN"
 "http://www.w3.org/TR/2001/REC-SVG-20010904/DTD/svg10.dtd">
<svg version="1.0" xmlns="http://www.w3.org/2000/svg"
 width="800.000000pt" height="800.000000pt" viewBox="0 0 800.000000 800.000000"
 preserveAspectRatio="xMidYMid meet">
<metadata>
Created by potrace 1.11, written by Peter Selinger 2001-2013
</metadata>
<g transform="translate(0.000000,800.000000) scale(0.100000,-0.100000)"
fill="#000000" stroke="none">
<path d="M2040 6371 c-25 -4 -72 -22 -105 -39 -33 -18 -105 -45 -160 -61 -55
-15 -125 -41 -155 -56 -48 -24 -52 -29 -34 -35 11 -5 47 -11 80 -14 193 -20
251 -37 292 -85 47 -55 52 -74 46 -169 -5 -62 -3 -100 7 -128 7 -21 12 -42 11
-47 -6 -21 42 -135 66 -157 16 -14 45 -49 66 -78 53 -74 165 -164 269 -220 59
-31 94 -56 103 -74 17 -34 66 -71 127 -98 26 -12 47 -24 47 -28 0 -5 -47 -54
-105 -111 -57 -57 -102 -108 -98 -114 3 -5 1 -7 -4 -4 -12 8 -34 -16 -57 -60
-12 -24 -15 -49 -12 -94 4 -50 2 -65 -11 -74 -32 -23 -25 -149 8 -158 10 -3
19 -10 19 -16 0 -6 -3 -10 -7 -9 -5 2 -9 0 -10 -4 -6 -17 -2 -28 9 -28 6 0 8
3 5 7 -4 3 2 12 13 20 11 8 20 25 20 39 0 13 5 24 10 24 6 0 10 -9 10 -19 0
-28 -27 -151 -43 -200 -14 -40 -14 -42 12 -59 35 -25 109 -59 146 -68 17 -4
40 -14 52 -22 13 -8 30 -11 39 -8 10 4 32 -3 53 -18 20 -14 92 -50 161 -81
153 -69 167 -81 151 -126 -14 -40 -14 -116 -1 -124 18 -11 32 47 25 103 -5 43
-4 52 9 52 10 0 13 -6 9 -17 -5 -12 -2 -15 10 -10 20 7 21 3 7 -24 -8 -15 -7
-19 4 -19 7 0 16 7 20 15 8 23 47 19 53 -6 4 -12 11 -18 20 -15 20 8 98 -47
120 -84 12 -20 19 -26 25 -17 10 17 32 -7 36 -38 1 -14 3 -36 5 -49 1 -13 6
-28 11 -33 5 -4 6 12 2 40 -4 26 -3 47 2 47 15 0 40 -34 46 -65 5 -24 2 -33
-14 -43 -12 -7 -20 -8 -20 -2 0 5 -4 10 -10 10 -5 0 -10 -6 -10 -14 0 -9 -7
-12 -22 -9 -17 3 -19 2 -9 -5 7 -5 10 -15 7 -21 -10 -16 -26 -14 -26 4 0 8 -4
15 -10 15 -5 0 -10 9 -10 20 0 14 -7 20 -21 20 -11 0 -17 -4 -14 -10 9 -15
-61 -12 -85 3 -16 9 -22 9 -28 0 -10 -16 -38 -19 -85 -9 -30 7 -42 5 -58 -10
-14 -13 -23 -14 -30 -7 -14 14 -1 36 17 29 9 -4 13 3 11 24 -2 31 -24 41 -33
15 -4 -8 -14 -15 -24 -15 -9 0 -25 -9 -34 -19 -17 -18 -14 -20 58 -55 42 -19
103 -42 137 -50 58 -13 62 -13 81 6 15 15 17 22 7 34 -6 8 -9 17 -5 21 3 3 6
1 6 -5 0 -24 63 -52 118 -52 36 0 51 -4 46 -11 -4 -7 -33 -9 -88 -4 -100 9
-94 -8 9 -24 109 -17 130 -25 133 -50 2 -12 -4 -34 -14 -49 l-17 -27 27 24
c14 14 26 30 26 37 0 6 7 14 15 18 8 3 15 1 15 -4 0 -6 6 -10 14 -10 23 0 -18
-74 -48 -88 -14 -6 -26 -16 -26 -22 0 -15 52 11 78 40 17 18 22 20 18 7 -5
-15 -2 -16 14 -7 25 13 33 13 27 -2 -2 -7 2 -21 10 -30 19 -21 9 -38 -17 -31
-18 5 -19 2 -12 -18 7 -19 3 -29 -25 -56 -18 -19 -33 -38 -33 -44 0 -5 -7 -12
-16 -16 -8 -3 -13 -12 -10 -19 7 -18 -21 -18 -40 0 -8 8 -11 22 -8 30 5 12 2
15 -10 10 -9 -4 -16 -1 -16 6 0 9 -6 8 -19 -4 -10 -9 -25 -14 -33 -11 -9 4
-18 -1 -22 -11 -5 -12 -2 -15 10 -10 14 5 15 4 5 -8 -35 -42 -78 -83 -94 -89
-10 -4 -17 -15 -15 -24 4 -24 -26 -24 -30 0 -2 9 1 17 7 17 6 0 16 10 22 22
10 18 5 16 -26 -9 -31 -26 -42 -30 -62 -22 -35 13 -38 11 -18 -11 10 -11 13
-20 7 -20 -7 0 -12 -9 -12 -20 0 -24 -16 -26 -38 -4 -10 11 -17 13 -20 5 -2
-6 -20 -11 -41 -11 -20 0 -43 -6 -50 -12 -10 -11 -11 -10 -6 2 4 12 -1 15 -22
14 -62 -2 -65 -3 -58 -23 4 -15 -3 -22 -32 -34 -47 -20 -24 -21 45 -3 29 7 54
10 57 7 2 -4 -17 -13 -43 -20 -26 -6 -63 -16 -83 -22 -23 -6 -39 -17 -42 -29
-4 -17 0 -20 29 -20 24 0 34 -5 34 -15 0 -8 4 -15 10 -15 5 0 14 -8 19 -18 7
-13 0 -28 -35 -66 -24 -28 -43 -55 -42 -60 4 -20 -23 -58 -37 -52 -7 2 -19 -3
-27 -12 -11 -15 -11 -16 3 -4 14 11 16 9 17 -13 0 -26 -16 -33 -35 -14 -8 8
-18 6 -37 -6 -30 -20 -32 -28 -12 -44 11 -10 21 -9 45 3 29 15 32 15 81 -14
28 -16 55 -30 60 -30 4 0 77 61 162 136 84 76 182 158 218 183 96 67 218 161
264 202 23 20 59 46 81 57 22 11 52 36 66 54 18 23 50 43 108 67 74 30 88 33
154 29 88 -6 158 -38 150 -68 -5 -19 0 -20 76 -20 65 0 88 -4 109 -19 15 -11
74 -29 132 -41 58 -12 128 -28 157 -35 52 -14 133 -54 133 -67 0 -4 -21 -18
-47 -31 -28 -15 -42 -27 -34 -31 6 -4 25 3 42 14 33 24 49 22 24 -3 -8 -9 -15
-26 -15 -39 l0 -22 16 23 c12 16 19 20 27 12 7 -7 5 -16 -8 -31 -20 -22 -33
-18 -44 12 -7 20 -9 19 -42 -11 -29 -28 -31 -32 -11 -28 35 8 26 -7 -18 -26
-49 -21 -98 -88 -71 -98 78 -31 173 -32 215 -3 14 9 24 10 42 2 18 -8 29 -7
47 5 13 9 47 20 75 25 46 8 53 7 71 -12 10 -12 24 -40 30 -62 6 -23 18 -48 27
-55 9 -8 25 -33 35 -57 17 -39 20 -42 41 -31 49 25 58 29 78 29 20 0 24 11 21
55 -1 14 5 21 18 22 25 2 45 -22 37 -43 -4 -9 -1 -14 5 -12 13 4 21 68 9 68
-5 0 -11 -6 -13 -12 -3 -7 -6 2 -6 20 -1 28 2 32 24 32 14 0 25 -4 25 -10 0
-5 8 -10 18 -10 13 0 18 7 18 21 -1 12 6 24 14 27 13 5 13 3 1 -12 -13 -16
-12 -17 14 -10 26 6 27 5 22 -18 -4 -16 -2 -25 6 -25 6 0 20 -4 30 -8 12 -5
17 -2 17 9 0 10 -6 13 -15 10 -9 -4 -15 0 -15 10 0 20 14 20 45 0 22 -14 25
-14 25 -1 0 10 12 16 35 19 19 2 35 2 35 0 0 -2 -11 -17 -25 -34 -32 -37 -32
-52 -1 -44 18 4 25 1 29 -14 4 -17 2 -18 -14 -9 -15 7 -19 6 -19 -6 0 -23 -19
-18 -29 7 -5 13 -7 25 -6 28 10 18 -67 -6 -86 -26 l-22 -24 22 0 c13 0 21 -5
19 -11 -2 -6 -7 -10 -11 -10 -4 1 -24 1 -44 1 -28 0 -34 3 -23 10 12 8 10 10
-8 10 -13 0 -20 -4 -17 -10 3 -5 0 -10 -9 -10 -8 0 -16 6 -19 13 -3 8 -9 7
-19 -6 -7 -10 -21 -19 -30 -20 -9 -2 -23 -9 -32 -16 -8 -7 -21 -9 -27 -5 -8 4
-9 3 -5 -4 6 -10 27 -10 94 4 19 4 22 0 22 -30 0 -19 6 -37 13 -40 8 -3 6 -8
-7 -17 -15 -9 -16 -13 -5 -20 11 -8 10 -12 -5 -24 -14 -11 -16 -15 -5 -15 10
-1 9 -3 -4 -11 -9 -6 -15 -14 -12 -20 4 -5 -1 -9 -10 -9 -9 0 -13 4 -10 10 3
5 0 7 -7 5 -8 -3 -19 -19 -25 -35 -14 -39 -36 -38 -64 1 -18 26 -20 35 -11 50
7 10 12 22 12 26 0 5 -4 1 -10 -7 -5 -8 -13 -11 -17 -6 -4 4 0 13 10 20 9 7
17 16 17 20 0 4 -11 -1 -24 -11 -13 -10 -22 -21 -19 -25 2 -5 4 -31 5 -58 0
-32 4 -50 11 -49 38 5 65 -3 69 -18 4 -13 -2 -18 -19 -19 -14 -1 -23 4 -23 12
0 29 -19 13 -26 -21 -3 -19 -10 -35 -15 -35 -5 0 -9 -11 -9 -25 0 -14 5 -25
10 -25 6 0 10 -4 10 -10 0 -5 -6 -10 -14 -10 -9 0 -12 -7 -9 -20 3 -12 0 -20
-7 -20 -10 0 -10 -3 0 -15 9 -11 10 -19 1 -28 -8 -10 -7 -29 4 -72 14 -53 14
-63 0 -104 -8 -24 -15 -58 -15 -74 0 -20 -6 -30 -19 -34 -17 -4 -18 -8 -8 -24
9 -15 9 -21 0 -27 -6 -4 -14 -28 -18 -55 -4 -26 -12 -50 -18 -54 -6 -4 -8 4
-5 21 3 14 2 26 -3 26 -4 0 -12 12 -17 28 l-10 27 -1 -27 c-1 -28 -23 -39 -37
-17 -3 6 -23 9 -44 7 -21 -2 -36 0 -34 4 6 10 -10 10 -20 1 -7 -8 -21 -10 -85
-17 -25 -2 -50 -11 -57 -20 -6 -9 -20 -16 -30 -16 -21 0 -57 -20 -36 -20 6 0
12 -7 12 -15 0 -16 -27 -20 -49 -6 -11 7 -10 11 5 20 16 9 14 10 -11 4 -38 -9
-100 -9 -142 0 -27 5 -33 3 -33 -11 0 -15 2 -15 10 -2 6 9 10 10 10 3 0 -6 9
-10 20 -8 11 2 22 -1 26 -7 4 -6 10 -5 15 3 7 11 9 11 9 -1 0 -13 1 -13 10 0
7 11 10 11 10 2 0 -7 4 -11 8 -8 4 2 14 1 22 -4 12 -7 11 -9 -5 -9 -11 1 -47
-2 -80 -6 -33 -4 -62 -7 -65 -7 -22 0 -30 3 -25 11 3 5 -4 12 -15 16 -11 3
-20 13 -20 21 0 8 -10 14 -22 14 -17 0 -19 -3 -9 -9 9 -6 10 -11 2 -15 -6 -4
-15 -4 -21 -1 -19 12 -50 14 -50 3 0 -6 -7 -5 -17 3 -17 12 -17 12 -1 -6 14
-15 20 -16 33 -5 13 11 14 10 9 -5 -5 -11 -4 -16 3 -12 6 4 8 -4 6 -21 l-5
-27 24 25 c12 14 19 20 15 14 -5 -7 -2 -22 5 -33 10 -17 20 -20 46 -16 24 4
31 2 26 -7 -4 -7 -3 -8 5 -4 6 4 9 10 7 14 -2 4 2 13 10 20 12 11 13 9 11 -9
-1 -15 4 -23 18 -25 51 -8 81 -18 98 -32 11 -10 17 -11 17 -3 0 7 13 11 36 9
39 -2 58 -18 22 -18 -13 0 -43 -7 -68 -14 l-45 -15 40 -2 c22 -1 44 -1 48 0 5
1 5 -3 2 -10 -9 -14 74 -10 95 5 10 7 10 4 -2 -10 -17 -19 -16 -20 10 -22 15
-1 52 -4 82 -6 37 -4 49 -2 35 4 -17 7 -15 9 13 9 20 1 31 -3 27 -9 -5 -9 6
-14 26 -12 3 1 3 -19 -1 -44 -5 -30 -3 -47 6 -54 6 -6 10 -20 7 -31 -5 -18
-12 -20 -54 -16 -27 2 -49 0 -49 -5 0 -4 -5 -8 -11 -8 -5 0 -8 4 -5 8 3 5 -9
6 -27 4 l-32 -5 30 -9 c56 -17 70 -20 108 -23 22 -2 40 -5 42 -7 2 -2 6 -25
10 -51 7 -43 5 -49 -13 -54 -22 -5 -40 -35 -19 -32 29 4 37 -3 37 -31 0 -35
-12 -42 -105 -60 -74 -14 -172 -39 -203 -51 -13 -5 -35 -9 -50 -9 -20 0 -23
-3 -13 -9 9 -6 24 -6 38 0 32 12 46 11 38 -1 -4 -6 6 -10 22 -10 16 0 34 -5
40 -11 15 -15 113 -22 113 -8 0 6 -9 8 -19 4 -11 -3 -22 -1 -26 5 -9 15 38 12
61 -4 13 -10 34 -13 67 -9 26 3 47 2 46 -3 -1 -16 -18 -49 -18 -37 -1 14 -41
13 -41 -1 0 -5 -40 -7 -97 -4 -107 6 -123 3 -123 -18 0 -11 -18 -14 -77 -16
-43 -1 -87 -1 -98 0 -11 1 -63 1 -115 0 -119 0 -438 0 -465 2 -18 1 -18 2 4
14 24 13 24 14 -17 21 -23 4 -45 11 -48 17 -10 16 18 28 51 23 24 -4 26 -3 10
4 -11 5 -35 10 -54 10 -25 1 -32 -3 -28 -13 4 -10 -4 -19 -21 -25 l-27 -11 30
6 c16 3 27 2 23 -2 -4 -4 0 -13 10 -20 30 -22 6 -25 -62 -9 -81 18 -77 18 -73
3 3 -17 -631 -24 -647 -7 -8 8 21 10 104 9 157 -3 264 -1 259 5 -3 2 -56 7
-119 10 -105 5 -195 16 -205 26 -6 7 162 2 172 -4 12 -7 310 -13 317 -6 8 8
-174 38 -204 35 -14 -2 -17 -1 -6 1 10 3 21 13 23 24 5 17 15 19 79 19 64 0
74 2 75 18 0 14 2 13 9 -4 10 -26 55 -37 72 -17 9 12 47 13 212 9 111 -3 221
-5 245 -5 55 -1 48 -10 -16 -21 -41 -6 -34 -8 47 -7 52 0 85 2 73 4 -14 3 -20
9 -16 19 3 10 -4 16 -26 20 -17 4 -31 10 -31 14 0 24 -129 31 -305 16 -54 -5
-135 3 -135 13 0 3 45 6 99 7 55 0 105 5 113 10 7 6 62 11 122 12 61 2 112 4
114 7 2 2 1 8 -3 14 -7 12 -85 15 -85 4 0 -5 -19 -8 -42 -9 -24 0 -79 -4 -123
-8 -44 -4 -109 -9 -145 -11 -173 -13 -319 -29 -315 -36 3 -4 -2 -10 -11 -13
-24 -9 -36 -7 -28 5 5 8 -48 10 -187 6 -107 -3 -178 -2 -159 2 20 4 41 10 47
14 6 4 14 3 18 -3 3 -5 16 -10 28 -9 21 0 21 1 2 10 -14 6 3 8 56 6 61 -3 80
0 97 14 15 12 18 19 10 22 -8 3 -6 6 5 6 9 1 17 6 17 12 0 6 -7 8 -16 5 -9 -3
-27 -6 -40 -6 -14 0 -23 -4 -19 -9 3 -5 0 -13 -6 -17 -7 -4 -9 -3 -5 4 11 18
-12 24 -70 16 -39 -4 -54 -10 -50 -19 3 -9 -11 -17 -41 -24 -56 -15 -67 -7
-22 13 32 15 26 15 -98 10 -92 -4 -133 -2 -133 5 0 6 6 11 13 12 40 2 82 10
91 18 14 12 106 9 106 -2 0 -14 350 23 372 39 7 6 56 11 108 13 52 1 99 7 104
12 6 5 -1 9 -19 9 -50 0 -19 12 39 15 31 2 56 -1 56 -7 0 -5 -4 -6 -10 -3 -5
3 -10 0 -10 -8 0 -8 12 -18 26 -21 42 -11 21 -18 -68 -22 -46 -2 -108 -6 -138
-10 -55 -6 -80 -22 -57 -36 7 -4 10 -8 7 -9 -3 0 -20 -2 -38 -5 -19 -2 -40 -7
-47 -12 -17 -9 180 -3 255 8 l55 8 -52 1 c-28 0 -55 5 -58 11 -3 5 2 10 12 10
469 13 430 10 407 27 -17 12 -16 13 7 14 17 1 19 3 6 6 -10 3 -23 0 -30 -5
-11 -9 -96 -8 -187 2 -45 5 -52 26 -8 28 18 0 40 0 48 -1 59 -7 145 -7 200 -1
69 8 48 14 -35 10 -27 -1 -47 1 -44 5 10 10 86 17 169 16 41 0 82 4 90 9 11 7
1 10 -35 11 -27 0 -57 2 -65 3 -8 2 -94 6 -190 10 -96 4 -240 10 -320 13 -80
4 -266 7 -414 7 -412 -1 -315 12 217 29 31 1 57 6 57 11 0 4 10 6 21 3 14 -4
18 -2 12 4 -5 5 -46 10 -91 10 -45 1 -82 6 -82 12 0 5 7 7 15 3 8 -3 15 -1 15
5 0 11 -37 8 -75 -6 -17 -6 -17 -5 -5 5 12 9 7 10 -25 5 -22 -4 -37 -4 -33 0
11 11 128 22 134 13 6 -10 92 -9 119 1 16 7 13 9 -17 13 -21 2 -39 -1 -42 -7
-2 -6 -11 -3 -22 8 -18 17 -18 17 6 16 14 -1 46 2 73 6 46 8 47 7 47 -19 0
-14 4 -26 10 -26 5 0 7 7 3 16 -5 14 -1 15 25 9 27 -5 31 -4 26 9 -4 12 0 16
16 16 14 0 20 -5 17 -13 -3 -9 4 -12 28 -9 22 3 32 8 29 17 -7 18 20 26 101
32 39 3 74 10 78 17 6 8 10 8 14 -1 2 -7 14 -13 26 -14 21 0 21 -1 2 -9 -18
-8 -18 -9 -2 -9 10 -1 26 3 36 9 10 5 34 10 54 12 20 1 34 4 32 8 -2 3 18 5
43 5 26 1 90 4 142 9 52 4 101 8 108 8 29 3 8 15 -25 15 -21 0 -54 1 -73 3
-19 1 -73 -3 -120 -9 -46 -6 -88 -11 -93 -11 -4 0 -5 -4 -2 -10 7 -11 -24 -13
-49 -4 -15 6 -15 7 0 18 12 9 -19 12 -143 10 -177 -3 -178 -1 -13 17 81 8 136
9 183 2 37 -5 72 -6 78 -2 8 5 8 8 -1 11 -8 2 -14 13 -16 24 -2 15 2 14 22
-10 22 -25 29 -27 62 -20 20 4 41 6 46 5 5 -1 16 1 25 5 11 5 -4 12 -44 20
l-60 12 47 1 c26 1 49 5 53 10 3 6 -4 8 -16 6 -12 -2 -18 -1 -15 3 8 7 13 8
41 11 20 1 8 29 -15 33 -16 3 -14 6 8 23 27 19 27 19 12 0 -14 -20 -14 -20 7
-2 11 10 30 19 42 20 12 1 17 5 12 10 -16 16 9 56 32 52 11 -3 17 -1 13 2 -13
13 -54 11 -49 -2 2 -7 -3 -19 -11 -28 -8 -8 -12 -18 -8 -22 4 -5 2 -5 -5 -2
-15 9 -9 43 7 39 7 -2 10 3 7 12 -4 9 -2 18 4 21 5 4 7 11 3 16 -3 5 -10 7
-15 4 -5 -4 -9 -1 -9 5 0 6 -4 9 -9 6 -5 -4 -12 0 -14 6 -4 10 -6 10 -6 0 -1
-10 -6 -10 -22 -1 -17 9 -20 8 -13 -3 6 -11 5 -11 -9 1 -9 7 -17 9 -17 3 0 -5
-7 -13 -16 -16 -15 -6 -15 -4 -3 11 13 17 13 17 -7 0 -11 -9 -24 -14 -28 -10
-4 4 -4 -1 0 -12 7 -18 6 -19 -12 -5 -15 11 -16 11 -6 0 18 -21 15 -34 -5 -19
-16 13 -17 12 -4 -4 11 -13 17 -15 28 -6 11 9 12 9 8 -4 -9 -22 -42 -28 -57
-9 -10 12 -10 14 0 8 18 -11 15 -1 -5 15 -14 12 -16 12 -8 0 6 -11 4 -13 -8
-8 -10 3 -17 2 -17 -2 0 -5 6 -12 13 -14 7 -4 5 -6 -5 -7 -10 -2 -24 -3 -30
-4 -7 -1 -21 4 -30 12 -10 8 -18 12 -18 7 0 -4 -6 -3 -12 3 -16 13 -20 13 -58
2 -18 -5 -32 -5 -36 1 -4 6 -13 4 -23 -5 -14 -13 -20 -13 -31 -3 -10 10 -11 9
-5 -2 6 -11 0 -13 -28 -9 -35 4 -36 3 -17 -14 22 -20 35 -24 24 -6 -5 8 -3 8
7 2 8 -5 25 -10 39 -10 34 -2 34 -2 21 -17 -6 -8 -7 -18 -3 -22 4 -5 1 -5 -6
-1 -7 4 -10 12 -7 17 4 5 2 9 -4 9 -5 0 -12 -6 -14 -12 -4 -10 -6 -9 -6 1 -1
11 -4 11 -18 0 -14 -12 -16 -12 -8 0 6 11 4 13 -8 8 -12 -4 -17 -1 -17 10 0
15 -2 15 -13 -2 -10 -13 -16 -15 -21 -6 -4 6 -12 9 -17 5 -5 -3 -9 -2 -8 3 4
26 -14 51 -37 48 -17 -1 -23 2 -22 13 2 9 -6 16 -19 17 -13 1 -23 -3 -23 -8 0
-5 9 -7 20 -4 11 3 18 1 14 -4 -10 -16 -33 -9 -45 14 -6 12 -8 19 -4 15 5 -4
15 -2 23 5 13 9 14 9 8 0 -4 -7 -2 -13 3 -13 6 0 11 5 11 11 0 8 4 9 13 0 14
-11 27 -5 27 13 0 6 -5 4 -10 -4 -6 -9 -10 -10 -10 -3 0 6 5 15 10 18 6 4 7
12 3 18 -4 7 -1 7 9 -1 9 -8 15 -19 12 -26 -3 -8 2 -16 12 -20 14 -5 15 -4 4
9 -10 12 -10 15 4 15 9 0 16 6 16 13 0 8 4 7 10 -3 8 -12 9 -10 7 7 -2 12 -7
26 -12 30 -4 5 -5 2 0 -6 6 -10 2 -11 -16 -6 -22 7 -23 7 -9 -11 14 -18 14
-18 -2 -5 -10 7 -16 17 -13 21 3 4 -2 13 -10 20 -7 6 -12 17 -9 24 3 7 -6 21
-18 32 -23 19 -23 19 -8 -1 8 -12 -1 -4 -20 16 -31 33 -120 88 -120 74 0 -2
-11 0 -24 5 -23 8 -81 19 -136 25 -14 2 -25 4 -25 5 0 3 -35 8 -93 14 -79 8
-112 15 -136 28 -25 14 -220 19 -273 8 -21 -4 -65 -11 -98 -14 -33 -3 -70 -8
-83 -10 -13 -3 -85 -6 -160 -7 -75 -1 -193 -10 -260 -20 -68 -10 -212 -21
-320 -25 -205 -7 -213 -7 -377 -5 -86 1 -192 -2 -298 -8 -16 0 -26 -4 -24 -8
3 -5 -11 -9 -31 -10 -38 -1 -86 -9 -112 -19 -8 -3 -35 -7 -60 -9 -25 -3 -65
-7 -90 -10 -25 -4 -55 -6 -67 -6 -13 1 -23 -3 -23 -7 0 -5 -6 -9 -12 -10 -7 0
-20 -3 -28 -5 -40 -10 -144 -24 -203 -26 -10 -1 -16 -5 -12 -10 3 -5 0 -13 -6
-17 -7 -4 -9 -3 -5 4 3 6 2 13 -4 17 -5 3 -10 -2 -11 -12 0 -10 -3 -13 -6 -5
-2 6 -9 12 -14 12 -6 0 -7 -6 -3 -12 6 -10 4 -10 -8 0 -13 10 -18 10 -24 1 -5
-8 -3 -9 6 -4 9 5 11 4 6 -4 -6 -8 -12 -9 -20 -2 -7 6 -16 8 -19 5 -4 -4 -29
-7 -57 -7 -38 0 -48 -3 -40 -12 7 -8 5 -12 -5 -12 -8 0 -15 7 -15 16 0 11 -3
10 -15 -5 -10 -13 -13 -14 -10 -3 5 13 -4 16 -52 18 -76 3 -105 4 -120 2 -10
-1 -13 -125 -13 -575 l0 -575 27 -20 c14 -12 32 -21 40 -21 7 0 16 -7 19 -15
4 -9 19 -15 39 -15 18 0 54 -10 81 -22 46 -21 47 -23 21 -26 -33 -4 -26 -22 8
-22 13 0 27 -5 30 -10 3 -6 -4 -10 -17 -10 -13 0 -34 -3 -48 -5 -14 -3 -19 -3
-12 1 18 9 15 24 -7 24 -33 0 -80 21 -75 34 3 9 -10 16 -38 22 -24 6 -42 15
-41 22 2 7 -4 12 -12 12 -12 0 -15 -17 -15 -96 l0 -96 138 3 c75 1 149 6 165
10 15 4 27 4 27 -1 0 -13 -40 -20 -120 -20 -41 0 -105 -3 -142 -7 l-68 -6 0
-53 0 -54 43 -1 c23 -1 45 -1 50 0 4 0 7 -4 7 -9 0 -7 -18 -8 -49 -4 l-50 6 0
-86 0 -86 3999 0 4000 0 0 500 c0 275 -2 500 -4 500 -3 0 -17 -5 -33 -11 -38
-15 -180 -49 -201 -48 -9 0 21 11 68 23 104 29 121 36 115 46 -3 5 0 12 7 16
8 5 6 10 -8 16 -13 6 -8 7 19 5 l37 -3 0 48 c0 46 -1 47 -36 54 -21 4 -31 10
-24 14 6 4 22 5 36 2 l24 -4 0 366 c0 201 -3 366 -8 366 -4 0 -23 -5 -42 -11
-63 -18 -122 -22 -335 -21 -162 1 -219 -2 -250 -13 -22 -8 -54 -16 -72 -19
-17 -2 -36 -7 -42 -10 -6 -4 -36 -9 -68 -12 -32 -3 -64 -6 -70 -6 -7 -1 -13
-4 -13 -8 0 -6 -16 -10 -53 -11 -11 0 -15 -5 -10 -12 4 -7 0 -6 -10 2 -9 7
-17 9 -17 4 0 -5 -10 -10 -22 -10 -46 -3 -67 -7 -62 -14 2 -4 -3 -10 -12 -13
-12 -5 -15 -2 -10 11 6 14 4 14 -15 -3 -12 -10 -19 -14 -16 -8 5 9 -3 10 -26
5 -17 -3 -58 -6 -89 -6 -34 1 -58 -4 -58 -10 0 -5 -4 -4 -9 4 -6 9 -11 10 -15
2 -4 -6 -13 -8 -19 -4 -7 4 -16 8 -22 9 -100 16 -123 22 -137 30 -7 5 -8 3 -3
-7 7 -11 6 -12 -6 -2 -17 13 -15 13 -80 13 l-51 0 7 29 c12 55 17 96 16 119
-1 12 -1 43 -1 70 0 26 1 91 0 145 0 120 12 169 49 199 29 23 50 68 33 68 -6
0 -13 19 -17 43 -8 52 -61 217 -86 273 -11 23 -19 54 -19 69 0 17 -13 43 -36
69 -19 22 -38 46 -42 52 -16 23 -33 52 -71 119 -22 39 -66 97 -98 130 -72 73
-199 236 -220 279 -29 63 -43 81 -63 82 -11 1 -22 3 -23 5 -2 2 -17 22 -33 44
-42 55 -111 201 -179 380 -32 83 -61 155 -65 160 -4 6 -15 38 -25 73 -17 56
-21 62 -46 62 -55 0 -116 99 -138 222 -12 72 -43 144 -116 273 -51 92 -55 118
-21 141 14 8 34 31 45 50 16 27 28 35 63 40 36 6 56 20 124 86 46 45 89 78
101 78 14 0 23 10 31 38 14 51 15 202 1 238 -15 38 -12 136 6 198 10 31 31 66
60 97 38 41 45 54 45 89 0 46 -25 57 -36 15 -3 -13 -9 -24 -13 -23 -3 0 -8 0
-11 -2 -26 -10 -50 -8 -50 4 0 7 -8 16 -17 18 -25 6 -54 -2 -48 -13 4 -5 -5
-5 -20 1 -18 7 -32 7 -43 -1 -14 -9 -14 -10 6 -6 14 3 25 -1 31 -11 8 -14 14
-15 41 -5 24 9 30 9 27 0 -3 -7 -10 -11 -16 -9 -6 1 -14 -5 -17 -13 -5 -13
-10 -12 -31 5 -14 11 -32 20 -40 20 -8 0 -21 7 -29 15 -9 8 -20 15 -25 15 -5
0 -34 -25 -63 -57 -65 -68 -96 -140 -81 -190 14 -48 25 -40 25 18 0 55 10 80
47 120 16 17 31 25 44 22 10 -3 26 0 34 7 12 10 20 9 40 -4 14 -9 25 -21 25
-26 0 -13 -4 -12 -34 1 -20 10 -28 9 -41 -5 -9 -9 -12 -16 -7 -16 6 0 8 -8 5
-18 -4 -16 1 -18 31 -14 28 3 36 1 36 -11 0 -9 -5 -19 -11 -22 -6 -5 -4 -12 8
-20 10 -7 15 -17 11 -21 -4 -4 -3 -13 2 -20 8 -9 2 -12 -25 -12 -20 0 -39 -3
-42 -6 -12 -11 7 -19 47 -19 41 0 81 -25 44 -29 -11 0 -29 0 -41 1 -13 1 -23
-3 -23 -9 0 -5 7 -10 16 -10 24 0 6 -20 -19 -21 -12 0 -17 -3 -11 -5 7 -3 10
-14 7 -24 -4 -16 0 -20 21 -20 16 0 25 -4 21 -10 -3 -5 -26 -10 -51 -10 -24 0
-44 -4 -44 -10 0 -5 -7 -10 -15 -10 -8 0 -15 -5 -15 -10 0 -6 -20 -9 -44 -8
-44 1 -45 1 -144 127 -55 69 -134 164 -177 211 -67 74 -223 291 -237 331 -4
11 -8 11 -18 2 -11 -10 -3 -27 40 -90 29 -43 60 -84 69 -91 15 -12 14 -15 -3
-28 -11 -7 -18 -15 -15 -17 2 -2 21 -14 41 -26 37 -22 150 -138 190 -194 l21
-29 -41 27 c-23 15 -47 25 -54 23 -8 -3 -4 -9 12 -18 14 -7 36 -23 50 -35 14
-13 34 -26 45 -29 19 -7 94 -92 124 -141 19 -31 12 -38 -38 -38 -25 0 -42 -5
-45 -14 -4 -8 -16 -13 -30 -11 -25 3 -59 -19 -50 -33 3 -5 -11 -18 -30 -30
-20 -12 -36 -25 -36 -30 0 -12 17 -11 25 1 3 5 36 28 74 50 48 29 78 40 107
40 68 0 71 -12 16 -69 -27 -28 -57 -51 -66 -51 -12 0 -15 -7 -12 -25 3 -14 1
-23 -4 -20 -14 9 -23 -46 -25 -157 -2 -87 1 -108 12 -108 7 0 16 -7 19 -15 4
-8 11 -15 18 -15 6 0 11 -11 11 -25 0 -14 -3 -25 -7 -25 -5 0 -8 -7 -8 -15 0
-8 -5 -15 -11 -15 -6 0 -9 6 -6 14 11 27 -6 25 -42 -4 -41 -34 -51 -37 -51
-13 0 9 -3 14 -6 10 -11 -11 8 -49 22 -43 8 3 14 1 14 -3 0 -15 -33 -22 -41
-10 -5 9 -12 8 -24 -4 -9 -10 -23 -17 -31 -17 -8 0 -14 -5 -14 -10 0 -7 6 -7
19 0 11 5 27 7 35 4 9 -4 23 -1 31 6 12 10 15 9 15 -8 0 -15 -7 -22 -27 -24
-17 -2 -32 -12 -38 -25 -11 -25 -31 -32 -21 -8 3 9 0 15 -9 15 -8 0 -15 7 -15
16 0 8 -4 13 -9 10 -10 -7 -2 -48 11 -57 5 -3 2 -13 -6 -22 -22 -22 -20 -30 5
-16 15 8 19 8 15 0 -4 -6 5 -22 21 -36 27 -24 28 -24 5 -25 -12 0 -25 -7 -28
-15 -4 -8 -11 -15 -16 -15 -6 0 -8 7 -4 15 9 24 -11 17 -44 -15 -18 -17 -44
-33 -60 -36 -16 -4 -32 -16 -39 -31 -6 -13 -25 -29 -41 -35 -17 -5 -30 -16
-30 -22 0 -16 -35 -57 -43 -50 -3 3 -16 0 -29 -7 -12 -7 -26 -12 -30 -11 -5 1
-8 -11 -8 -26 0 -22 -7 -32 -35 -45 -21 -10 -37 -13 -40 -6 -4 5 -11 6 -17 3
-7 -4 -6 -9 2 -14 9 -6 9 -13 1 -28 -6 -11 -8 -28 -5 -36 4 -12 0 -16 -16 -16
-16 0 -20 4 -16 15 3 8 1 15 -4 15 -12 0 -23 -37 -15 -51 7 -10 49 -7 96 7 11
3 18 -3 22 -16 3 -13 10 -18 21 -14 29 11 17 -14 -14 -30 -21 -10 -30 -11 -30
-3 0 7 -7 4 -14 -6 -10 -13 -16 -15 -22 -6 -4 7 0 17 9 24 23 17 21 25 -5 22
-13 -1 -29 -10 -36 -19 -16 -22 -34 -23 -30 -2 2 9 -7 20 -19 25 -22 8 -25 7
-62 -37 -14 -16 -15 -16 -22 2 -6 17 -8 17 -14 2 -8 -19 -35 -13 -35 8 0 16
-16 19 -25 4 -4 -7 -12 -7 -25 0 -13 7 -21 7 -25 -1 -4 -5 -14 -9 -23 -7 -10
2 -25 -6 -34 -17 -14 -16 -19 -18 -30 -7 -11 11 -10 14 2 22 13 8 12 14 -5 47
-24 45 -40 52 -49 21 l-6 -23 -18 21 c-9 12 -25 24 -34 27 -15 5 -18 0 -18
-28 0 -39 10 -47 64 -55 22 -3 41 -11 44 -19 3 -9 0 -11 -8 -6 -10 6 -12 2 -7
-15 l6 -22 -26 23 c-13 13 -34 24 -45 24 -11 0 -26 9 -32 20 -6 11 -17 24 -24
28 -7 5 -21 17 -31 28 -12 14 -21 17 -26 10 -4 -8 -16 -5 -35 9 -15 11 -33 20
-40 20 -6 0 -10 5 -8 12 3 8 94 46 117 48 2 0 1 7 -3 15 -3 9 0 15 8 15 8 0
16 -5 18 -11 2 -7 16 -4 38 10 22 13 29 21 18 21 -10 0 -15 5 -12 13 2 7 -4
21 -14 31 -29 26 -69 12 -77 -26 -6 -27 -10 -29 -36 -24 -22 4 -32 1 -41 -14
-7 -11 -19 -20 -26 -20 -8 0 -10 -8 -6 -25 7 -28 -2 -32 -25 -10 -29 26 -85
70 -114 88 -15 10 -25 22 -22 27 3 5 1 11 -5 15 -5 3 -10 0 -10 -7 -1 -8 -7
-5 -18 8 -10 11 -24 18 -31 16 -8 -3 -11 0 -7 6 6 11 -10 26 -29 27 -5 0 -12
5 -14 10 -3 6 -28 25 -57 43 -58 36 -58 35 -105 227 -15 61 -30 97 -45 112
-13 12 -38 52 -57 90 -18 37 -50 94 -70 125 l-38 58 53 -22 c70 -28 188 -61
195 -54 3 3 -2 17 -11 31 -9 14 -15 25 -13 25 9 0 152 -52 242 -88 169 -68
487 -183 492 -178 2 2 -6 14 -19 26 l-23 23 28 -5 c29 -6 34 1 15 20 -7 7 -8
12 -4 12 5 0 3 6 -3 14 -7 8 -21 12 -33 9 -18 -5 -19 -4 -8 16 10 20 8 26 -11
47 -17 18 -25 21 -31 12 -5 -10 -8 -8 -8 4 0 26 -59 54 -83 39 -16 -11 -18
-10 -13 7 5 16 0 22 -25 31 -43 15 -33 22 15 11 48 -11 69 -3 62 21 -19 62
-25 59 55 33 72 -24 159 -32 159 -16 0 5 -9 17 -20 27 -11 10 -20 24 -20 31 0
19 -90 74 -248 153 -111 57 -131 70 -118 80 10 8 21 9 33 3 10 -5 24 -7 31 -5
7 3 49 -5 92 -16 58 -16 102 -21 160 -19 l81 3 -51 33 c-38 25 -80 40 -163 58
-224 48 -331 95 -363 157 -9 16 -34 50 -57 75 l-42 45 33 -6 c17 -4 32 -5 32
-3 0 8 -173 86 -280 127 -63 23 -126 50 -140 59 -27 17 -97 40 -124 40 -37 0
-228 101 -266 141 -29 30 -44 39 -58 34 -11 -3 -23 -2 -26 4 -3 5 -44 21 -91
36 -47 15 -85 33 -85 39 0 7 -14 25 -30 41 -17 16 -47 53 -67 82 -64 93 -180
129 -333 104z m260 -186 c-7 -8 -22 -15 -34 -15 -12 0 -32 -7 -45 -16 -31 -22
-48 -5 -23 24 12 14 31 22 51 22 17 0 30 3 30 8 -3 19 2 22 17 7 13 -12 14
-19 4 -30z m114 -41 c9 -3 14 -10 11 -14 -3 -5 4 -11 15 -15 11 -3 20 -15 20
-25 0 -13 12 -21 48 -28 26 -6 54 -11 62 -11 18 1 162 -49 170 -58 3 -3 -4 -3
-15 1 -11 4 -67 14 -125 22 -58 8 -156 21 -218 30 -140 21 -211 15 -277 -21
l-50 -28 24 27 c14 14 33 26 44 26 10 0 21 8 24 18 6 24 80 62 123 63 19 0 53
4 75 8 22 5 43 9 47 10 3 0 13 -2 22 -5z m2916 -404 c-6 -11 -16 -17 -22 -14
-7 5 -5 12 7 21 25 18 28 17 15 -7z m-3233 -65 c0 -8 -4 -15 -9 -15 -4 0 -8 7
-8 15 0 8 4 15 8 15 5 0 9 -7 9 -15z m38 -16 c11 -17 -1 -21 -15 -4 -8 9 -8
15 -2 15 6 0 14 -5 17 -11z m1227 -3 c36 -15 69 -46 50 -46 -6 0 -14 5 -17 10
-3 6 -15 10 -26 10 -10 0 -19 4 -19 8 0 5 -10 8 -21 8 -12 -1 -24 5 -26 12 -6
16 17 15 59 -2z m-1197 -36 c3 -5 1 -10 -4 -10 -6 0 -11 5 -11 10 0 6 2 10 4
10 3 0 8 -4 11 -10z m-55 -17 c0 -10 -4 -14 -8 -8 -4 6 -11 13 -16 18 -5 4 -2
7 7 7 10 0 17 -8 17 -17z m635 2 l40 -14 -50 5 c-27 3 -54 10 -59 15 -14 13
22 10 69 -6z m-512 -46 c6 -10 19 -19 27 -19 11 0 12 -2 2 -8 -9 -6 -5 -12 15
-22 15 -7 32 -14 37 -14 5 -1 11 -7 14 -13 2 -9 -7 -13 -28 -13 -26 0 -31 -3
-25 -17 5 -15 4 -16 -6 -5 -18 17 -29 15 -22 -5 5 -17 4 -17 -13 0 -19 18 -19
18 0 32 19 14 18 15 -8 42 l-27 27 7 -29 c6 -26 6 -28 -7 -15 -8 9 -22 29 -31
47 l-18 31 36 0 c24 0 39 -6 47 -19z m684 5 c-3 -3 -12 -4 -19 -1 -8 3 -5 6 6
6 11 1 17 -2 13 -5z m160 -40 c-3 -3 -12 -4 -19 -1 -8 3 -5 6 6 6 11 1 17 -2
13 -5z m46 -11 c-7 -2 -19 -2 -25 0 -7 3 -2 5 12 5 14 0 19 -2 13 -5z m-53
-27 c52 -13 89 -24 82 -25 -15 -1 -195 38 -201 45 -9 9 26 3 119 -20z m97 18
c-3 -3 -12 -4 -19 -1 -8 3 -5 6 6 6 11 1 17 -2 13 -5z m-777 -101 c0 -7 11
-20 24 -29 14 -8 22 -22 20 -29 -7 -19 -62 -2 -92 28 l-23 23 22 28 c21 27 23
27 36 10 7 -10 13 -24 13 -31z m3056 17 c8 0 14 -4 14 -10 0 -12 -20 -13 -39
-1 -8 5 -10 14 -5 22 6 10 9 10 12 1 2 -7 10 -12 18 -12z m-144 -215 c-2 -14
-8 -25 -12 -25 -4 0 -5 11 -2 25 2 14 8 25 12 25 4 0 5 -11 2 -25z m-8 -120
c5 -19 4 -26 -2 -20 -5 6 -13 24 -16 40 -5 19 -4 26 2 20 5 -5 13 -23 16 -40z
m-2250 -18 c46 -27 119 -140 235 -366 23 -45 61 -177 61 -212 0 -16 -3 -16
-27 -4 -27 14 -109 115 -119 147 -8 25 -75 41 -184 43 -131 3 -154 10 -166 47
-10 34 -53 62 -121 78 -24 6 -43 15 -43 20 0 23 240 230 267 230 7 0 18 9 25
20 16 25 24 25 72 -3z m-211 3 c32 -1 32 -1 -45 -74 -72 -69 -189 -156 -209
-156 -5 0 -9 10 -9 21 0 31 193 224 215 215 9 -3 31 -6 48 -6z m2480 -40 c22
-1 22 -1 -2 -20 -28 -24 -45 -26 -37 -5 3 8 0 15 -6 15 -6 0 -5 6 3 16 8 10
15 12 17 5 2 -6 13 -11 25 -11z m-174 -262 c1 -4 -5 -5 -13 -2 -8 3 -12 13 -8
27 5 20 6 20 13 1 4 -10 8 -22 8 -26z m-2323 -45 c10 -10 12 -19 6 -21 -16 -5
-53 18 -47 29 9 13 21 11 41 -8z m-366 -43 c0 -5 -5 -10 -11 -10 -5 0 -7 5 -4
10 3 6 8 10 11 10 2 0 4 -4 4 -10z m634 -26 c20 -8 42 -44 26 -44 -5 0 -10 7
-10 15 0 17 -16 20 -25 5 -4 -6 -16 -8 -28 -4 -28 8 -30 11 -22 23 7 12 35 14
59 5z m2006 -33 c0 -3 -11 -11 -24 -17 -20 -9 -25 -9 -29 6 -3 13 2 17 24 17
16 0 29 -3 29 -6z m-2018 -73 c6 -22 -7 -134 -14 -117 -11 28 -20 107 -13 118
8 15 22 14 27 -1z m58 2 c0 -5 -4 -10 -10 -10 -5 0 -10 5 -10 10 0 6 5 10 10
10 6 0 10 -4 10 -10z m2021 -73 c-6 -6 -14 -8 -18 -4 -4 4 -1 13 5 19 7 7 13
21 13 33 1 12 4 9 6 -9 3 -16 0 -33 -6 -39z m-2716 13 c3 -5 1 -10 -4 -10 -6
0 -11 5 -11 10 0 6 2 10 4 10 3 0 8 -4 11 -10z m238 -80 c-4 -34 -2 -55 8 -67
11 -15 10 -15 -9 1 -12 11 -22 27 -22 36 0 12 -13 21 -45 29 -53 13 -60 26
-10 18 26 -4 35 -2 35 9 0 17 20 19 20 2 0 -7 5 -5 11 5 16 27 18 21 12 -33z
m2397 11 c0 -5 -7 -12 -16 -15 -14 -5 -15 -4 -4 9 14 17 20 19 20 6z m33 -47
c-8 -22 -23 -6 -23 24 1 25 2 26 15 9 7 -11 11 -25 8 -33z m-2093 -34 c0 -5
-4 -10 -10 -10 -5 0 -10 5 -10 10 0 6 5 10 10 10 6 0 10 -4 10 -10z m1745 0
c-3 -5 -14 -10 -23 -9 -14 0 -13 2 3 9 27 11 27 11 20 0z m125 -10 c0 -5 -5
-10 -11 -10 -5 0 -7 5 -4 10 3 6 8 10 11 10 2 0 4 -4 4 -10z m-150 -19 c0 -6
-9 -9 -19 -8 -11 0 -17 5 -15 9 7 11 34 10 34 -1z m-1340 -10 c0 -12 -20 -25
-27 -18 -7 7 6 27 18 27 5 0 9 -4 9 -9z m1272 -13 c-7 -7 -12 -8 -12 -2 0 6 3
14 7 17 3 4 9 5 12 2 2 -3 -1 -11 -7 -17z m308 12 c0 -5 -5 -10 -11 -10 -5 0
-7 5 -4 10 3 6 8 10 11 10 2 0 4 -4 4 -10z m495 -150 c3 -5 1 -10 -4 -10 -6 0
-11 5 -11 10 0 6 2 10 4 10 3 0 8 -4 11 -10z m-29 -30 c1 -17 -3 -30 -8 -30
-5 0 -7 4 -4 9 4 5 0 11 -6 14 -10 3 -10 7 1 20 17 21 16 22 17 -13z m-1989
-37 c-21 -22 -32 -11 -17 17 9 16 15 19 23 11 8 -8 7 -16 -6 -28z m1146 -10
c-3 -7 -6 -13 -8 -13 -2 0 -5 6 -8 13 -3 8 1 14 8 14 7 0 11 -6 8 -14z m-353
-42 c0 -12 -20 -25 -27 -18 -7 7 6 27 18 27 5 0 9 -4 9 -9z m370 -1 c0 -5 -5
-10 -11 -10 -5 0 -7 5 -4 10 3 6 8 10 11 10 2 0 4 -4 4 -10z m53 3 c-7 -2 -19
-2 -25 0 -7 3 -2 5 12 5 14 0 19 -2 13 -5z m37 -3 c0 -5 -4 -10 -10 -10 -5 0
-10 5 -10 10 0 6 5 10 10 10 6 0 10 -4 10 -10z m75 0 c-3 -5 2 -10 12 -11 10
0 13 -3 6 -6 -7 -2 -23 3 -35 11 l-22 16 22 0 c13 0 20 -4 17 -10z m-228 -17
c0 -12 -9 -18 -24 -18 l-24 0 22 18 c11 9 23 17 24 17 2 0 3 -8 2 -17z m-227
-18 c0 -8 -7 -15 -16 -15 -14 0 -14 3 -4 15 7 8 14 15 16 15 2 0 4 -7 4 -15z
m104 0 c-4 -8 -16 -15 -28 -15 -20 1 -20 1 4 15 31 18 30 18 24 0z m404 3 c-2
-6 -10 -14 -16 -16 -7 -2 -10 2 -6 12 7 18 28 22 22 4z m-438 -37 c0 -5 -7
-16 -15 -25 -8 -8 -15 -19 -15 -25 0 -6 -7 -11 -15 -11 -21 0 -19 40 3 56 20
16 42 18 42 5z m94 -16 c-4 -8 -10 -15 -15 -15 -4 0 -6 7 -3 15 4 8 10 15 15
15 4 0 6 -7 3 -15z m-54 -16 c0 -5 -5 -9 -11 -9 -5 0 -7 -5 -4 -11 4 -6 14 -8
24 -4 13 5 13 3 -2 -12 -18 -17 -19 -17 -33 1 -10 14 -11 22 -3 27 6 4 9 12 5
18 -5 7 -1 9 8 5 9 -3 16 -10 16 -15z m-10 -69 c0 -5 -2 -10 -4 -10 -3 0 -8 5
-11 10 -3 6 -1 10 4 10 6 0 11 -4 11 -10z m180 -70 c0 -5 -5 -10 -11 -10 -5 0
-7 5 -4 10 3 6 8 10 11 10 2 0 4 -4 4 -10z m-660 -260 c0 -5 -4 -10 -10 -10
-5 0 -10 5 -10 10 0 6 5 10 10 10 6 0 10 -4 10 -10z m1585 -60 c3 -5 2 -10 -4
-10 -5 0 -13 5 -16 10 -3 6 -2 10 4 10 5 0 13 -4 16 -10z m-1871 -105 c3 -8 1
-15 -3 -15 -5 0 -11 7 -15 15 -3 8 -1 15 3 15 5 0 11 -7 15 -15z m1744 -4 c-4
-19 -37 -23 -54 -6 -21 20 -18 23 21 22 26 -1 35 -5 33 -16z m196 -16 c3 -8 1
-15 -4 -15 -6 0 -10 7 -10 15 0 8 2 15 4 15 2 0 6 -7 10 -15z m101 -107 c6
-24 4 -28 -14 -28 -12 0 -21 6 -21 14 0 8 -6 16 -12 19 -9 3 -7 9 7 20 23 18
31 13 40 -25z m-211 11 c-4 -8 4 -9 27 -4 l34 7 -29 -25 c-42 -34 -18 -41 43
-12 48 24 53 24 68 9 14 -13 14 -17 2 -25 -8 -5 -17 -9 -21 -9 -5 0 -8 -4 -8
-10 0 -13 78 -4 96 11 11 9 14 8 14 -4 0 -16 -40 -27 -101 -27 -28 0 -39 4
-39 15 0 8 -9 15 -20 15 -11 0 -20 -4 -20 -9 0 -5 -12 -9 -27 -9 -16 0 -41 -5
-57 -11 -39 -16 -45 -6 -12 20 22 17 26 27 21 50 -6 25 -4 29 15 29 13 0 19
-4 14 -11z m306 -89 c23 -45 25 -54 9 -44 -6 3 -15 1 -20 -7 -6 -11 -12 -10
-28 5 -23 21 -27 56 -9 74 19 19 26 15 48 -28z m92 33 c-6 -2 -10 -9 -7 -13 3
-5 12 -7 19 -4 8 3 17 1 21 -5 7 -12 -9 -14 -42 -5 -13 4 -23 13 -23 20 0 8
10 14 23 13 12 0 16 -3 9 -6z m75 -19 c-3 -3 -12 -4 -19 -1 -8 3 -5 6 6 6 11
1 17 -2 13 -5z m-2571 -50 c-2 -14 -20 -44 -41 -67 -21 -22 -36 -33 -32 -24 3
8 1 18 -6 20 -7 3 -4 8 8 13 29 11 41 25 49 57 8 34 26 35 22 1z m1989 16 c3
-5 1 -10 -4 -10 -6 0 -11 5 -11 10 0 6 2 10 4 10 3 0 8 -4 11 -10z m25 -41 c0
-6 -4 -7 -10 -4 -5 3 -10 11 -10 16 0 6 5 7 10 4 6 -3 10 -11 10 -16z m133 14
c-7 -2 -21 -2 -30 0 -10 3 -4 5 12 5 17 0 24 -2 18 -5z m212 -23 c6 -1 2 -5
-8 -9 -23 -8 -89 -2 -82 9 4 6 54 6 90 0z m225 0 c0 -5 -2 -10 -4 -10 -3 0 -8
5 -11 10 -3 6 -1 10 4 10 6 0 11 -4 11 -10z m-375 -7 c-11 -3 -23 -10 -27 -17
-5 -7 -8 -7 -8 0 0 16 11 24 34 23 20 -1 20 -1 1 -6z m401 -38 c2 -21 -1 -23
-12 -15 -7 7 -19 8 -26 4 -7 -4 -4 2 6 14 25 28 31 28 32 -3z m-265 1 c39 -1
63 -7 71 -17 7 -9 24 -23 38 -33 l24 -16 -27 0 c-15 0 -27 -4 -27 -9 0 -5 -17
-15 -37 -22 -21 -6 -44 -16 -50 -22 -9 -6 -13 -6 -13 1 0 5 -7 9 -16 8 -9 0
-19 4 -21 10 -2 7 9 10 32 8 19 -1 35 2 35 7 0 5 -7 9 -15 9 -8 0 -15 5 -15
10 0 6 5 10 10 10 12 0 13 11 0 30 -7 12 -12 12 -22 2 -6 -6 -22 -12 -34 -12
-13 0 -26 -4 -29 -10 -3 -5 -14 -10 -23 -10 -15 0 -15 2 -2 10 12 8 11 10 -5
10 -14 0 -21 7 -21 19 0 11 4 17 8 15 4 -3 16 -1 25 5 10 6 26 8 36 5 11 -3
45 -7 78 -8z m299 -36 c0 -5 -4 -10 -10 -10 -5 0 -10 5 -10 10 0 6 5 10 10 10
6 0 10 -4 10 -10z m-517 -29 c-4 -16 -11 -21 -24 -18 -14 4 -19 0 -19 -14 0
-10 -4 -19 -10 -19 -11 0 -13 11 -4 34 3 9 12 16 19 16 7 0 18 7 25 15 16 20
21 15 13 -14z m43 -8 c-5 -39 -5 -40 -15 -24 -6 9 -6 22 0 33 14 25 18 22 15
-9z m499 7 c3 -5 -1 -10 -9 -10 -9 0 -16 5 -16 10 0 6 4 10 9 10 6 0 13 -4 16
-10z m-2875 -10 c0 -5 -2 -10 -4 -10 -3 0 -8 5 -11 10 -3 6 -1 10 4 10 6 0 11
-4 11 -10z m60 -5 c-7 -8 -17 -15 -22 -15 -6 0 -5 7 2 15 7 8 17 15 22 15 6 0
5 -7 -2 -15z m-300 -5 c0 -5 -7 -10 -15 -10 -8 0 -15 5 -15 10 0 6 7 10 15 10
8 0 15 -4 15 -10z m2411 -10 c11 -6 19 -21 19 -35 0 -14 4 -25 8 -25 5 0 7 13
4 29 -3 25 -1 29 20 28 20 -2 23 -7 24 -45 0 -37 -2 -43 -18 -39 -10 3 -16 1
-12 -4 3 -5 -2 -9 -10 -9 -9 0 -16 -7 -16 -15 0 -8 -7 -15 -16 -15 -11 0 -13
-6 -9 -19 7 -23 -14 -39 -26 -20 -5 8 -9 26 -9 42 0 15 -5 27 -11 27 -6 0 -3
7 5 16 19 18 12 34 -14 34 -10 0 -21 6 -23 13 -4 8 -14 3 -31 -15 -25 -28 -54
-39 -39 -15 4 6 7 21 6 32 -2 11 0 14 3 7 5 -10 13 -8 32 10 14 13 22 18 19
12 -4 -7 3 -14 16 -18 15 -4 26 0 36 14 16 23 16 23 42 10z m-2321 -10 c0 -5
-4 -10 -10 -10 -5 0 -10 5 -10 10 0 6 5 10 10 10 6 0 10 -4 10 -10z m1695 -30
c22 0 40 -40 24 -54 -9 -8 -10 -8 -5 2 5 7 -2 15 -17 21 -30 12 -41 27 -31 43
6 9 9 9 12 0 2 -7 10 -12 17 -12z m810 -30 c3 -5 3 -15 -1 -21 -6 -11 -23 6
-24 24 0 10 18 9 25 -3z m175 -20 c0 -5 -4 -10 -10 -10 -5 0 -10 5 -10 10 0 6
5 10 10 10 6 0 10 -4 10 -10z m423 3 c3 -5 8 -24 12 -43 l6 -35 -20 33 c-12
18 -21 37 -21 42 0 12 17 13 23 3z m-3163 -18 c0 -9 6 -12 15 -9 8 4 15 1 15
-6 0 -18 -44 -7 -48 13 -2 9 1 17 7 17 6 0 11 -7 11 -15z m2660 6 c0 -6 -4
-13 -10 -16 -5 -3 -10 -15 -10 -26 0 -16 4 -19 21 -14 18 6 19 5 7 -14 -15
-24 -38 -28 -38 -6 0 8 -12 21 -27 29 -16 8 -22 15 -15 16 7 0 10 5 7 10 -3 6
4 14 17 19 30 13 48 13 48 2z m-413 -28 c-8 -7 -37 9 -31 19 3 5 12 4 20 -3 8
-6 13 -14 11 -16z m448 8 c-3 -6 -14 -10 -23 -10 -15 1 -15 2 1 6 9 2 17 9 17
15 0 6 3 9 6 5 3 -3 3 -10 -1 -16z m-888 -13 c-3 -8 -6 -5 -6 6 -1 11 2 17 5
13 3 -3 4 -12 1 -19z m966 3 c-4 -14 1 -20 17 -23 l21 -3 -21 -22 c-14 -15
-32 -23 -55 -23 -18 0 -40 -3 -49 -6 -21 -8 -21 19 -1 36 8 7 13 16 10 20 -3
5 4 11 15 15 11 4 18 11 15 16 -4 5 7 9 23 9 25 0 29 -3 25 -19z m-923 5 c0
-2 -7 -7 -16 -10 -8 -3 -12 -2 -9 4 6 10 25 14 25 6z m446 -18 c-1 -25 -27
-31 -34 -9 -3 8 0 11 7 7 6 -4 11 -3 11 3 0 5 -6 12 -12 14 -7 3 -3 6 8 6 16
1 21 -5 20 -21z m-93 5 c-7 -2 -19 -2 -25 0 -7 3 -2 5 12 5 14 0 19 -2 13 -5z
m777 -3 c0 -5 -7 -7 -15 -4 -8 4 -15 8 -15 10 0 2 7 4 15 4 8 0 15 -4 15 -10z
m-80 -41 c0 -6 -4 -7 -10 -4 -5 3 -10 11 -10 16 0 6 5 7 10 4 6 -3 10 -11 10
-16z m224 -12 c5 -22 5 -22 -10 -2 -13 17 -16 18 -24 5 -11 -17 -13 -9 -4 14
8 20 31 10 38 -17z m-694 -2 c10 -12 10 -15 -4 -15 -9 0 -16 7 -16 15 0 8 2
15 4 15 2 0 9 -7 16 -15z m556 -9 c1 -17 -2 -23 -12 -19 -15 5 -19 25 -7 36
12 13 18 7 19 -17z m-3049 -11 c-4 -8 -11 -15 -17 -15 -7 0 -7 6 0 21 13 23
26 19 17 -6z m3004 0 c-1 -15 -24 -12 -29 3 -3 9 2 13 12 10 10 -1 17 -7 17
-13z m-221 -31 c15 -37 12 -42 -10 -15 -22 26 -26 41 -10 41 6 0 15 -12 20
-26z m440 16 c0 -5 -7 -10 -16 -10 -8 0 -12 5 -9 10 3 6 10 10 16 10 5 0 9 -4
9 -10z m-820 -4 c0 -3 -4 -8 -10 -11 -5 -3 -10 -1 -10 4 0 6 5 11 10 11 6 0
10 -2 10 -4z m205 -6 c3 -5 2 -10 -4 -10 -5 0 -13 5 -16 10 -3 6 -2 10 4 10 5
0 13 -4 16 -10z m135 -6 c0 -8 -19 -13 -24 -6 -3 5 1 9 9 9 8 0 15 -2 15 -3z
m324 -3 c3 -4 -3 -16 -14 -26 -19 -17 -19 -17 -7 9 14 29 14 29 21 17z m74 -9
c16 4 19 2 15 -10 -5 -12 -1 -14 15 -10 13 4 22 2 22 -5 0 -7 -14 -12 -30 -13
-19 -1 -30 4 -30 12 0 8 -11 14 -26 14 -23 0 -25 2 -14 15 10 12 15 13 21 4 4
-7 16 -9 27 -7z m-748 -12 c0 -5 -7 -7 -15 -4 -8 4 -15 8 -15 10 0 2 7 4 15 4
8 0 15 -4 15 -10z m490 1 c0 -5 3 -16 6 -25 10 -26 -12 -18 -24 9 -10 21 -9
25 3 25 8 0 15 -4 15 -9z m-35 -19 c-3 -3 -11 0 -18 7 -9 10 -8 11 6 5 10 -3
15 -9 12 -12z m-21 -43 c-8 -14 -24 -10 -24 6 0 9 6 12 15 9 8 -4 12 -10 9
-15z m155 -62 c0 -21 -1 -21 -9 -2 -12 28 -12 37 0 30 6 -3 10 -16 9 -28z
m-199 19 c0 -3 -4 -8 -10 -11 -5 -3 -10 -1 -10 4 0 6 5 11 10 11 6 0 10 -2 10
-4z m470 -20 c0 -16 -37 -28 -46 -15 -3 5 4 9 15 9 12 0 21 5 21 10 0 6 2 10
5 10 3 0 5 -6 5 -14z m-589 -5 c-9 -6 -10 -10 -2 -16 7 -4 17 -2 24 4 15 12
30 4 46 -27 12 -23 12 -24 -21 -17 -21 4 -28 3 -20 -3 11 -7 10 -10 -3 -16
-29 -11 -45 -7 -39 9 4 9 0 15 -10 15 -9 0 -16 6 -16 14 0 18 27 46 43 46 8 0
7 -3 -2 -9z m-88 -15 c9 -7 17 -17 17 -22 0 -4 -5 -3 -11 3 -9 9 -16 9 -29 1
-14 -9 -21 -8 -33 4 -9 9 -13 18 -10 22 11 10 47 6 66 -8z m217 -21 c0 -8 -4
-15 -10 -15 -5 0 -7 7 -4 15 4 8 8 15 10 15 2 0 4 -7 4 -15z m-335 -42 c-1
-27 3 -33 15 -30 10 3 16 -3 17 -14 1 -11 -3 -19 -9 -19 -6 0 -9 -3 -5 -6 3
-3 -4 -15 -16 -27 -13 -13 -17 -22 -9 -25 7 -2 12 -10 12 -18 0 -11 -4 -12
-19 -2 -22 13 -24 48 -3 48 23 0 8 23 -18 27 -32 5 -35 10 -19 30 9 11 10 14
2 9 -12 -7 -19 12 -14 38 1 5 -2 12 -8 15 -5 3 10 6 33 7 42 1 42 0 41 -33z
m50 27 c-3 -5 -12 -10 -18 -10 -7 0 -6 4 3 10 19 12 23 12 15 0z m275 -20 c0
-5 -4 -10 -10 -10 -5 0 -10 5 -10 10 0 6 5 10 10 10 6 0 10 -4 10 -10z m170 6
c0 -3 -4 -8 -10 -11 -5 -3 -10 -1 -10 4 0 6 5 11 10 11 6 0 10 -2 10 -4z
m-228 -54 c-10 -10 -24 -16 -32 -14 -9 3 -11 -1 -7 -12 5 -13 3 -15 -11 -7
-10 5 -18 19 -19 30 -2 23 12 37 22 21 10 -16 23 -12 30 10 6 18 8 18 21 5 13
-13 12 -17 -4 -33z m-118 12 c4 -9 13 -14 21 -10 8 3 14 0 12 -7 -3 -18 -58
-39 -84 -32 -13 3 -23 1 -23 -5 0 -5 -7 -10 -15 -10 -8 0 -15 -5 -15 -12 0 -6
-3 -8 -7 -5 -8 9 48 66 65 67 7 0 11 4 8 9 -4 5 0 12 6 14 21 9 26 8 32 -9z
m176 -3 c0 -11 -6 -26 -13 -33 -8 -7 -12 -19 -9 -26 2 -6 -1 -12 -7 -12 -15 0
-14 14 7 54 20 41 22 43 22 17z m12 -73 c-2 -10 -6 -18 -7 -18 -1 0 -5 8 -7
18 -3 11 0 19 7 19 7 0 10 -8 7 -19z m-232 2 c0 -5 -4 -10 -9 -10 -5 0 -18 -3
-28 -6 -16 -6 -16 -5 2 9 23 19 35 21 35 7z m120 6 c0 -20 -22 -56 -35 -56
-18 0 -21 46 -2 53 16 7 37 8 37 3z m-273 -12 c-3 -3 -12 -4 -19 -1 -8 3 -5 6
6 6 11 1 17 -2 13 -5z m212 -34 c6 -18 6 -30 0 -30 -5 0 -9 6 -9 14 0 8 -5 16
-12 18 -6 2 -8 10 -4 16 10 17 13 15 25 -18z m127 0 c0 -20 -7 -25 -19 -14 -7
7 2 34 12 34 4 0 7 -9 7 -20z m-206 -1 c0 -6 6 -9 13 -6 8 3 20 1 27 -3 11 -7
11 -11 -1 -22 -14 -14 -70 -41 -73 -36 -12 20 -24 58 -17 54 5 -3 14 1 21 9
15 18 30 20 30 4z m247 5 c-3 -3 -12 -4 -19 -1 -8 3 -5 6 6 6 11 1 17 -2 13
-5z m227 -26 c3 -16 2 -28 -3 -28 -10 0 -21 47 -13 55 7 7 8 5 16 -27z m-218
-21 c1 -9 -2 -17 -7 -17 -5 0 -9 2 -9 4 0 2 -3 12 -7 22 -4 11 -2 15 7 12 7
-2 14 -12 16 -21z m54 19 c0 -2 -3 -11 -6 -20 -9 -23 -23 -20 -21 4 1 11 7 20
14 20 7 0 13 -2 13 -4z m-515 -16 c3 -5 1 -10 -4 -10 -6 0 -11 5 -11 10 0 6 2
10 4 10 3 0 8 -4 11 -10z m150 -30 c-3 -5 -13 -10 -21 -10 -8 0 -14 5 -14 10
0 6 9 10 21 10 11 0 17 -4 14 -10z m-65 -30 c0 -5 -4 -10 -10 -10 -5 0 -10 5
-10 10 0 6 5 10 10 10 6 0 10 -4 10 -10z m-111 -52 c17 -10 23 -9 40 6 25 22
27 10 6 -30 -12 -23 -15 -25 -21 -11 -7 20 -40 23 -47 5 -2 -7 -8 0 -12 15 -7
27 -8 28 -22 7 -8 -11 -22 -20 -31 -20 -12 0 -13 -3 -4 -12 8 -8 15 -8 27 2
13 11 18 10 30 -6 23 -30 14 -49 -12 -23 -7 7 -17 3 -32 -17 -25 -32 -26 -43
-5 -51 8 -3 13 -11 10 -19 -3 -7 0 -15 7 -17 8 -3 5 -10 -8 -21 -20 -17 -20
-17 3 -6 18 9 22 8 22 -5 0 -10 -5 -13 -12 -9 -7 5 -9 0 -6 -14 4 -14 0 -22
-13 -25 -11 -3 -19 -13 -19 -22 0 -14 6 -12 31 9 17 14 37 26 44 26 20 0 28
-19 16 -34 -6 -7 -9 -20 -6 -27 3 -8 -6 -19 -21 -26 -22 -10 -25 -10 -19 4 5
15 4 15 -13 0 -26 -23 -29 -22 -36 18 -4 19 -10 35 -15 35 -4 0 -6 15 -4 33 2
17 4 47 3 65 0 17 4 32 10 32 7 0 8 6 1 19 -7 13 -6 23 3 36 11 15 11 23 1 42
-7 13 -10 33 -8 44 5 17 12 19 49 15 24 -3 52 -11 63 -18z m84 -38 c-3 -11
-10 -20 -15 -20 -6 0 -7 7 -4 16 3 9 6 20 6 25 0 6 4 8 9 5 5 -3 7 -15 4 -26z
m83 3 c8 7 28 -12 37 -35 3 -10 11 -18 18 -18 6 0 9 7 5 15 -3 8 -1 15 5 15 6
0 7 5 4 10 -3 6 -2 10 2 10 5 0 9 -23 9 -50 1 -44 -1 -50 -18 -44 -10 3 -18 2
-18 -3 0 -5 -9 -9 -20 -10 -27 -2 -25 6 5 17 14 5 25 15 25 21 0 6 -7 9 -15 5
-9 -3 -15 0 -15 9 0 8 -5 15 -11 15 -5 0 -7 -5 -3 -11 9 -16 -18 -30 -33 -17
-7 6 -13 31 -13 57 1 42 2 45 15 27 8 -11 18 -17 21 -13z m-156 -8 c0 -8 -4
-15 -10 -15 -5 0 -10 7 -10 15 0 8 5 15 10 15 6 0 10 -7 10 -15z m725 5 c3 -5
-1 -10 -9 -10 -9 0 -16 5 -16 10 0 6 4 10 9 10 6 0 13 -4 16 -10z m-458 -22
c2 -18 0 -20 -7 -8 -12 18 -13 30 -2 30 4 0 9 -10 9 -22z m-332 -38 c-3 -5
-10 -10 -16 -10 -5 0 -9 5 -9 10 0 6 7 10 16 10 8 0 12 -4 9 -10z m70 -30 c-3
-5 -10 -10 -16 -10 -5 0 -9 5 -9 10 0 6 7 10 16 10 8 0 12 -4 9 -10z m138 -62
c-2 -5 3 -8 11 -8 9 0 16 5 16 10 0 6 -5 10 -11 10 -5 0 -7 5 -4 10 3 6 13 10
21 10 11 0 13 -6 9 -20 -5 -16 -3 -19 12 -14 14 5 15 4 3 -4 -8 -6 -18 -8 -22
-6 -4 3 -8 1 -8 -4 0 -5 10 -12 22 -15 12 -4 19 -9 16 -13 -4 -3 -22 3 -41 15
l-35 21 -16 -25 c-20 -30 -36 -33 -29 -5 3 11 9 17 14 14 5 -3 10 0 10 5 3 21
4 26 12 39 5 7 4 12 -2 12 -6 0 -11 10 -11 22 0 19 3 17 19 -12 10 -19 17 -38
14 -42z m-148 31 c16 -1 15 -2 -5 -8 -29 -9 -60 -3 -60 11 0 6 10 8 23 4 12
-3 31 -6 42 -7z m10 -47 c-8 -2 -15 -8 -15 -13 0 -5 -7 -9 -15 -9 -9 0 -15 9
-15 23 0 15 3 18 9 9 6 -10 10 -10 21 3 11 13 15 13 21 3 5 -8 3 -14 -6 -16z
m249 -1 c0 -11 5 -21 13 -21 20 0 15 -28 -7 -40 -14 -7 -20 -7 -20 0 0 5 5 10
10 10 20 0 9 21 -15 30 -14 5 -25 12 -25 14 0 3 7 3 17 -1 13 -5 15 -2 10 16
-3 14 -1 21 6 18 7 -2 12 -14 11 -26z m-24 -51 c0 -11 -7 -20 -15 -20 -8 0
-15 -4 -15 -10 0 -5 -4 -10 -10 -10 -15 0 -7 22 15 42 25 22 25 22 25 -2z
m-60 -20 c0 -5 -4 -10 -10 -10 -5 0 -10 5 -10 10 0 6 5 10 10 10 6 0 10 -4 10
-10z m250 -40 c0 -5 -5 -10 -11 -10 -5 0 -7 5 -4 10 3 6 8 10 11 10 2 0 4 -4
4 -10z m-93 -44 c-2 -6 -12 -12 -23 -13 -10 -2 -13 0 -6 3 22 10 1 24 -26 17
-24 -6 -25 -4 -14 10 11 12 19 14 43 5 16 -6 28 -15 26 -22z m-375 -24 c4 -13
-1 -18 -20 -20 -25 -2 -25 -2 -6 17 10 11 20 20 20 20 1 1 4 -7 6 -17z m153
-28 c-9 -9 -19 -13 -23 -10 -3 4 -2 10 4 14 6 4 14 16 19 27 7 18 9 18 12 3 3
-10 -3 -25 -12 -34z m-35 12 c0 -8 -4 -18 -10 -21 -5 -3 -10 -1 -10 5 0 6 -4
8 -10 5 -6 -3 -7 1 -4 9 8 20 34 21 34 2z m166 -21 c-23 -17 -36 -19 -36 -6 0
5 10 12 23 14 12 2 24 5 27 5 3 1 -4 -5 -14 -13z m-369 -62 c-3 -10 -5 -4 -5
12 0 17 2 24 5 18 2 -7 2 -21 0 -30z m96 20 c-3 -7 -6 -13 -8 -13 -2 0 -5 6
-8 13 -3 8 1 14 8 14 7 0 11 -6 8 -14z m-48 -56 c4 -24 2 -37 -5 -37 -6 0 -8
-5 -4 -11 4 -8 9 -7 15 2 11 19 23 -14 15 -45 -3 -12 -2 -26 2 -30 4 -4 7 -52
7 -107 1 -77 -2 -98 -12 -95 -9 4 -13 -5 -13 -29 0 -20 -10 -49 -24 -70 l-24
-35 -13 70 c-10 56 -10 88 -1 153 20 133 45 277 48 274 2 -2 6 -20 9 -40z
m181 -38 c3 -5 -9 -9 -25 -9 -20 0 -31 5 -31 14 0 15 46 11 56 -5z m124 1 c-8
-5 -19 -10 -25 -10 -5 0 -3 5 5 10 8 5 20 10 25 10 6 0 3 -5 -5 -10z m-1380
-22 c0 -4 -7 -8 -15 -8 -8 0 -15 4 -15 8 0 5 7 9 15 9 8 0 15 -4 15 -9z m890
8 c0 -2 -9 -6 -20 -9 -11 -3 -18 -1 -14 4 5 9 34 13 34 5z m373 -13 c8 -7 -11
-33 -24 -33 -5 0 -9 9 -9 20 0 19 20 27 33 13z m275 -2 c22 -1 24 -3 11 -11
-10 -5 -37 -8 -60 -6 -54 5 -51 4 -45 15 5 7 21 8 94 2z m-197 -11 c13 -8 19
-7 19 0 0 6 5 8 10 5 19 -12 10 -23 -24 -29 -44 -8 -61 -28 -47 -55 17 -30 13
-44 -9 -38 -11 3 -23 1 -26 -5 -3 -5 -12 -7 -20 -4 -8 3 -24 -4 -37 -17 -20
-20 -67 -34 -67 -20 0 19 37 62 50 58 10 -3 20 8 32 37 10 23 21 38 24 35 4
-4 1 -13 -5 -21 -10 -12 -9 -13 9 -9 12 3 19 11 16 18 -3 8 5 16 20 19 13 4
23 10 23 14 -4 24 3 27 32 12z m-1559 -15 c3 0 9 -3 13 -7 4 -3 -1 -5 -12 -3
-10 2 -21 4 -25 4 -5 1 -8 6 -8 12 0 6 5 7 13 2 6 -4 15 -8 19 -8z m1438 6 c0
-6 -4 -13 -10 -16 -5 -3 -10 1 -10 9 0 9 5 16 10 16 6 0 10 -4 10 -9z m194
-36 c-33 -28 -40 -30 -47 -12 -4 7 -6 6 -6 -4 -1 -21 -51 -33 -51 -12 0 15 38
32 76 35 13 1 24 6 24 10 0 4 7 8 17 8 12 0 8 -7 -13 -25z m-5034 5 c0 -5 -6
-10 -14 -10 -8 0 -18 5 -21 10 -3 6 3 10 14 10 12 0 21 -4 21 -10z m3467 -14
c2 -2 0 -7 -6 -11 -6 -3 -11 0 -11 7 0 11 -2 10 -9 0 -7 -11 -9 -11 -14 1 -4
12 0 15 15 12 11 -3 23 -6 25 -9z m1348 -15 c-7 -23 -24 -29 -21 -8 2 18 17
39 23 33 3 -2 2 -14 -2 -25z m-4787 1 c2 -6 -9 -12 -24 -14 l-27 -3 30 -11
c26 -10 29 -9 30 9 2 22 23 49 23 30 0 -7 12 -10 33 -7 62 10 122 4 122 -11 0
-6 -6 -9 -13 -7 -8 2 -11 -1 -8 -6 3 -6 0 -13 -6 -15 -15 -6 7 -7 174 -7 69 0
119 -4 123 -10 4 -6 -5 -10 -21 -10 -15 0 -24 -3 -20 -7 10 -10 12 -10 93 -12
36 0 64 -3 62 -6 -11 -11 -122 -19 -238 -18 -147 2 -156 -7 -11 -12 56 -2 104
-6 108 -9 3 -4 21 -3 39 0 21 4 33 2 33 -5 0 -6 11 -11 24 -11 20 0 23 4 20
23 -2 12 -2 16 2 9 3 -6 10 -10 15 -7 5 3 17 1 28 -5 11 -5 22 -6 25 -2 3 5
62 9 131 10 84 2 124 -1 120 -8 -3 -5 -13 -10 -21 -10 -8 0 -13 -4 -9 -9 8
-13 -29 -23 -58 -16 -14 4 -32 3 -41 -2 -12 -7 -10 -10 10 -20 18 -8 22 -8 18
0 -5 8 -2 7 7 0 9 -9 58 -13 164 -14 101 -1 137 -4 110 -9 -22 -4 -87 -8 -144
-8 -109 -1 -136 -7 -80 -19 l34 -7 -35 -6 c-19 -4 -44 -2 -55 3 -19 10 -19 10
0 18 14 5 2 8 -35 9 -30 1 -89 3 -130 5 -51 3 -77 1 -82 -8 -6 -9 -8 -9 -8 1
0 8 -17 12 -51 12 -27 0 -48 -4 -45 -8 3 -5 -1 -9 -9 -9 -8 0 -12 4 -10 8 3 4
-3 6 -12 4 -10 -2 -24 -4 -30 -4 -7 -1 -13 -9 -13 -18 0 -15 2 -16 10 -3 6 10
10 11 10 3 0 -15 148 -17 218 -4 25 5 42 5 42 -1 0 -6 26 -7 63 -4 34 2 53 2
42 -1 -45 -12 -37 -23 15 -23 42 0 51 -3 40 -11 -12 -9 -11 -10 7 -6 13 3 25
1 28 -3 3 -5 -5 -11 -17 -13 -17 -3 -14 -5 10 -6 17 0 32 4 32 9 0 7 6 7 19 0
11 -5 30 -10 43 -10 17 -1 13 -5 -17 -17 -25 -9 -84 -17 -155 -20 -65 -3 -121
-10 -129 -16 -12 -10 -13 -9 -7 1 7 11 -12 12 -100 7 -166 -10 -341 -13 -320
-6 12 5 -13 12 -70 21 -49 8 -81 16 -71 18 9 2 17 8 17 14 0 6 12 8 30 4 17
-3 29 -2 26 3 -6 9 -81 25 -106 22 -17 -1 -47 16 -39 23 2 3 43 8 89 11 47 4
86 8 88 10 11 11 -220 2 -263 -11 -80 -23 -218 -45 -227 -36 -5 5 26 14 68 20
85 14 103 20 83 33 -14 9 21 14 64 11 9 -1 17 2 17 6 0 5 26 10 57 11 76 3 81
11 10 12 -32 1 -61 3 -67 4 -5 1 -20 3 -32 4 -40 2 -10 13 39 13 31 0 41 3 29
7 -15 6 -16 10 -7 16 24 14 -8 22 -60 14 -42 -7 -57 -5 -87 11 l-37 20 38 0
c21 0 36 -4 32 -9 -3 -5 8 -3 25 6 17 8 52 18 78 23 35 6 36 16 0 12 -3 -1 -8
4 -11 11 -6 17 38 20 66 6 21 -11 21 -10 -2 11 -17 16 -36 23 -67 24 -24 1
-44 2 -44 4 0 18 152 22 158 4z m3382 5 c0 -4 -3 -7 -6 -6 -4 0 -10 -4 -13
-10 -4 -6 -11 -3 -18 8 -10 15 -8 18 13 17 13 -1 24 -5 24 -9z m479 -3 c-7 -8
-6 -14 1 -17 6 -3 6 -5 -1 -3 -17 3 -20 33 -3 33 10 0 11 -4 3 -13z m864 -17
c3 -8 1 -20 -4 -28 -6 -10 -9 -7 -9 14 0 29 5 35 13 14z m-1596 -22 c0 -8 -6
-15 -13 -15 -8 0 -11 6 -8 15 4 8 9 15 13 15 4 0 8 -7 8 -15z m75 -4 c-4 -9
-7 -11 -9 -4 -3 7 -10 10 -18 7 -7 -3 -15 -2 -18 3 -3 4 7 8 23 8 21 1 26 -3
22 -14z m1773 10 c8 -14 -13 -24 -33 -16 -14 5 -14 7 -2 15 19 12 27 12 35 1z
m-445 -11 c0 -5 -8 -10 -17 -10 -15 0 -16 2 -3 10 19 12 20 12 20 0z m-1263
-14 c4 -4 -4 -6 -19 -4 -35 5 -46 15 -14 14 14 -1 29 -5 33 -10z m1207 -5 c4
-5 2 -21 -4 -36 -8 -21 -15 -26 -32 -22 -12 4 -27 2 -34 -4 -8 -7 -13 -3 -17
12 -4 15 0 23 13 26 11 3 16 11 13 19 -4 10 3 14 25 14 17 0 33 -4 36 -9z
m-270 -7 c27 -10 18 -25 -11 -18 -46 11 -62 23 -31 24 14 0 33 -3 42 -6z m179
-5 c-9 -9 -68 -14 -128 -10 -19 1 -25 4 -18 9 18 11 157 12 146 1z m524 -2
c-17 -7 -26 -16 -22 -25 5 -14 -11 -52 -29 -65 -7 -6 -4 -7 7 -3 20 6 22 0 5
-18 -10 -11 -20 -6 -50 28 -38 42 -47 61 -25 53 6 -2 20 0 30 5 12 6 17 5 17
-6 0 -8 -8 -17 -17 -19 -13 -3 -11 -5 6 -6 21 -1 23 2 17 30 -5 25 -3 30 9 25
8 -3 17 -1 20 4 4 6 18 10 33 9 l27 -1 -28 -11z m-4096 -4 c-11 -5 -11 -7 0
-14 10 -6 4 -9 -18 -9 -31 0 -49 11 -36 24 3 3 20 6 37 5 17 0 25 -3 17 -6z
m2579 -7 c0 -3 -4 -8 -10 -11 -5 -3 -10 -1 -10 4 0 6 5 11 10 11 6 0 10 -2 10
-4z m1574 -20 c-3 -8 0 -17 6 -21 8 -5 5 -11 -7 -21 -24 -18 -34 -17 -27 1 4
8 1 21 -5 29 -13 15 -5 26 20 26 12 0 16 -5 13 -14z m399 -1 c-3 -9 -8 -14
-10 -11 -3 3 -2 9 2 15 9 16 15 13 8 -4z m-2336 -11 c-3 -3 -12 -4 -19 -1 -8
3 -5 6 6 6 11 1 17 -2 13 -5z m108 -4 c6 0 3 -5 -5 -10 -19 -12 -60 -13 -60
-1 0 5 -8 12 -17 14 -10 3 2 3 27 2 25 -2 50 -4 55 -5z m1143 3 c-10 -2 -28
-2 -40 0 -13 2 -5 4 17 4 22 1 32 -1 23 -4z m-1778 -24 c0 -5 -4 -9 -10 -9 -5
0 -10 7 -10 16 0 8 5 12 10 9 6 -3 10 -10 10 -16z m425 12 c-6 -5 -35 -12 -65
-15 l-55 -5 45 13 c54 17 88 20 75 7z m1625 -1 c0 -5 -4 -10 -10 -10 -5 0 -10
5 -10 10 0 6 5 10 10 10 6 0 10 -4 10 -10z m-1775 -10 c3 -5 -1 -10 -10 -10
-9 0 -13 5 -10 10 3 6 8 10 10 10 2 0 7 -4 10 -10z m2143 -8 c2 -7 -3 -12 -12
-12 -9 0 -16 7 -16 16 0 17 22 14 28 -4z m-136 -40 c-11 -10 -22 -26 -25 -37
-5 -19 -5 -19 -12 3 -4 12 -11 22 -16 22 -19 0 10 45 30 46 12 1 25 5 29 9 4
4 9 -1 10 -10 2 -9 -5 -24 -16 -33z m-232 7 c0 -11 -4 -17 -10 -14 -5 3 -10
15 -10 26 0 11 5 17 10 14 6 -3 10 -15 10 -26z m710 10 c0 -5 -7 -9 -15 -9 -8
0 -15 7 -15 15 0 9 6 12 15 9 8 -4 15 -10 15 -15z m763 14 c-7 -2 -19 -2 -25
0 -7 3 -2 5 12 5 14 0 19 -2 13 -5z m80 0 c-7 -2 -19 -2 -25 0 -7 3 -2 5 12 5
14 0 19 -2 13 -5z m223 -9 c-5 -12 0 -14 24 -10 16 2 32 0 36 -5 3 -5 -4 -9
-15 -9 -24 0 -27 -10 -9 -28 14 -14 -6 -15 -67 -3 l-40 9 40 2 c22 1 33 4 25
7 -24 9 -50 35 -44 44 3 5 17 9 31 9 19 0 24 -4 19 -16z m-6598 -1 c-10 -2
-28 -2 -40 0 -13 2 -5 4 17 4 22 1 32 -1 23 -4z m80 0 c-10 -2 -26 -2 -35 0
-10 3 -2 5 17 5 19 0 27 -2 18 -5z m5118 -18 c-8 -8 -20 -15 -27 -15 -9 0 -8
4 1 15 7 8 19 15 27 15 12 0 12 -2 -1 -15z m1522 3 c-2 -6 -10 -13 -16 -14 -7
-1 -8 0 -2 3 5 2 8 9 4 14 -3 5 0 9 6 9 7 0 10 -5 8 -12z m-4931 -4 c-3 -3
-12 -4 -19 -1 -8 3 -5 6 6 6 11 1 17 -2 13 -5z m126 -1 c-7 -2 -21 -2 -30 0
-10 3 -4 5 12 5 17 0 24 -2 18 -5z m4883 -8 c-18 -18 -30 -20 -20 -2 4 6 -1 4
-12 -5 -12 -11 -25 -14 -33 -9 -18 12 14 30 52 31 25 0 27 -2 13 -15z m-6758
-2 c-10 -2 -28 -2 -40 0 -13 2 -5 4 17 4 22 1 32 -1 23 -4z m1369 1 c-3 -3
-12 -4 -19 -1 -8 3 -5 6 6 6 11 1 17 -2 13 -5z m4246 -14 c15 -7 26 -18 24
-24 -4 -12 -46 -16 -53 -4 -3 5 -11 5 -17 -1 -7 -5 -33 -12 -59 -14 -37 -4
-46 -3 -41 8 4 11 16 13 50 8 36 -5 45 -3 41 8 -4 13 12 39 22 35 3 -1 17 -8
33 -16z m1822 0 c-3 -5 -15 -10 -26 -10 -10 0 -19 5 -19 10 0 6 12 10 26 10
14 0 23 -4 19 -10z m120 0 c3 -5 -3 -10 -14 -10 -11 0 -23 5 -26 10 -3 6 3 10
14 10 11 0 23 -4 26 -10z m-7660 -10 c-7 -12 -113 -12 -120 0 -2 4 25 8 61 9
46 1 64 -1 59 -9z m913 3 c-10 -2 -26 -2 -35 0 -10 3 -2 5 17 5 19 0 27 -2 18
-5z m3952 -26 c0 -5 -4 -5 -10 -2 -5 3 -10 14 -10 23 0 15 2 15 10 2 5 -8 10
-19 10 -23z m2084 24 c7 -11 -14 -20 -31 -13 -7 2 -10 8 -7 13 7 12 31 12 38
0z m763 3 c-3 -3 -12 -4 -19 -1 -8 3 -5 6 6 6 11 1 17 -2 13 -5z m-5727 -8 c0
-11 -19 -15 -25 -6 -3 5 1 10 9 10 9 0 16 -2 16 -4z m3480 -6 c0 -5 -7 -10
-16 -10 -8 0 -12 5 -9 10 3 6 10 10 16 10 5 0 9 -4 9 -10z m1715 0 c4 -6 -5
-10 -20 -10 -15 0 -24 4 -20 10 3 6 12 10 20 10 8 0 17 -4 20 -10z m-3842 -7
c-7 -2 -19 -2 -25 0 -7 3 -2 5 12 5 14 0 19 -2 13 -5z m-2057 -25 c-9 -5 -33
-8 -54 -6 -35 4 -36 4 -13 14 30 13 92 6 67 -8z m-1043 -5 c-7 -2 -19 -2 -25
0 -7 3 -2 5 12 5 14 0 19 -2 13 -5z m6704 1 c-3 -3 -12 -4 -19 -1 -8 3 -5 6 6
6 11 1 17 -2 13 -5z m123 -14 c20 -6 21 -8 5 -8 -11 0 -31 4 -45 8 -20 6 -21
8 -5 8 11 0 31 -4 45 -8z m-7147 -7 c-7 -2 -19 -2 -25 0 -7 3 -2 5 12 5 14 0
19 -2 13 -5z m107 -12 c0 -5 -12 -13 -27 -18 -83 -29 -98 -32 -107 -23 -7 7
-3 10 9 10 11 0 34 9 50 20 31 20 75 27 75 11z m327 3 c-3 -3 -12 -4 -19 -1
-8 3 -5 6 6 6 11 1 17 -2 13 -5z m2610 0 c-3 -3 -12 -4 -19 -1 -8 3 -5 6 6 6
11 1 17 -2 13 -5z m3971 -2 c35 -3 16 -22 -23 -22 -19 0 -37 5 -40 10 -3 6
-13 10 -21 10 -8 0 -13 -4 -9 -9 3 -6 -34 -10 -94 -9 -71 0 -98 3 -95 11 4 11
204 17 282 9z m272 -2 c18 -12 2 -12 -25 0 -13 6 -15 9 -5 9 8 0 22 -4 30 -9z
m420 0 c0 -5 -7 -10 -16 -10 -8 0 -12 5 -9 10 3 6 10 10 16 10 5 0 9 -4 9 -10z
m73 -20 c5 -4 -4 -5 -20 -3 -27 5 -28 5 -8 -12 18 -15 18 -16 2 -11 -10 3 -21
6 -23 6 -2 0 -4 9 -4 21 0 16 4 19 23 14 12 -4 26 -11 30 -15z m-7443 1 c0
-16 -19 -23 -40 -16 -30 10 -24 25 10 25 17 0 30 -4 30 -9z m1137 3 c-3 -3
-12 -4 -19 -1 -8 3 -5 6 6 6 11 1 17 -2 13 -5z m172 -10 c2 -2 -19 -4 -47 -4
-30 0 -52 4 -52 11 0 9 87 3 99 -7z m68 10 c-3 -3 -12 -4 -19 -1 -8 3 -5 6 6
6 11 1 17 -2 13 -5z m131 0 c-3 -3 -28 -7 -54 -9 -33 -2 -42 0 -29 5 22 10 91
13 83 4z m274 -12 c6 -6 -35 -12 -117 -17 -69 -4 -129 -4 -132 -1 -4 3 21 6
55 6 33 0 63 4 66 8 3 5 -19 7 -48 4 -32 -2 -61 1 -72 7 -15 10 9 11 109 8 71
-3 133 -9 139 -15z m4563 8 c-3 -5 -21 -10 -38 -9 -27 0 -29 2 -12 9 28 12 57
12 50 0z m470 5 c-23 -8 -85 -10 -85 -3 0 4 21 8 48 7 26 0 43 -2 37 -4z m78
-16 c-10 -10 -55 0 -48 11 2 4 16 5 30 2 15 -2 23 -8 18 -13z m185 14 c-10 -2
-26 -2 -35 0 -10 3 -2 5 17 5 19 0 27 -2 18 -5z m-7013 -13 c4 -6 -5 -10 -19
-10 -14 0 -26 5 -26 10 0 6 9 10 19 10 11 0 23 -4 26 -10z m1024 6 c-2 -2 -29
-7 -59 -10 -37 -4 -48 -3 -35 3 19 9 102 15 94 7z m101 -6 c0 -5 -7 -10 -16
-10 -8 0 -12 5 -9 10 3 6 10 10 16 10 5 0 9 -4 9 -10z m673 3 c-7 -2 -19 -2
-25 0 -7 3 -2 5 12 5 14 0 19 -2 13 -5z m2847 -12 c0 -10 7 -24 15 -31 8 -7
12 -17 9 -22 -4 -6 -1 -13 5 -17 8 -6 8 -17 -2 -47 -7 -21 -11 -52 -7 -69 l6
-30 9 25 c4 14 11 44 14 68 7 47 24 61 29 22 2 -14 8 -30 14 -37 5 -7 7 -17 4
-22 -4 -5 -2 -12 4 -16 11 -7 13 -54 4 -79 -3 -9 -12 -16 -20 -16 -8 0 -14 -7
-14 -15 0 -8 -7 -15 -15 -15 -17 0 -18 -6 -5 -35 8 -19 9 -19 9 -1 1 14 7 17
27 13 14 -2 31 2 39 9 20 20 63 1 71 -31 5 -21 12 -25 44 -25 24 0 43 -7 55
-20 10 -11 24 -20 31 -20 20 0 28 -21 13 -32 -10 -7 -7 -8 10 -4 17 3 32 -3
53 -25 16 -16 34 -29 39 -29 5 0 9 -3 9 -7 0 -5 -21 -8 -48 -8 -32 0 -46 4
-44 13 1 6 -5 12 -13 12 -8 0 -15 5 -15 10 0 6 -7 10 -15 10 -8 0 -15 4 -15 9
0 6 -12 6 -30 1 -25 -7 -30 -6 -31 8 -1 15 -2 15 -6 0 -5 -20 -28 -24 -38 -8
-3 6 2 10 12 11 10 0 13 3 6 5 -7 3 -9 12 -6 21 4 9 -1 19 -11 25 -9 5 -14 13
-11 19 3 5 -1 6 -10 2 -10 -3 -21 0 -25 7 -10 17 -31 4 -23 -15 6 -17 -32 -22
-42 -5 -11 17 -42 11 -48 -10 -3 -13 -10 -18 -21 -14 -9 3 -13 10 -10 16 3 5
-4 16 -15 25 -15 10 -20 21 -16 34 5 14 2 17 -8 13 -13 -5 -13 1 0 48 9 29 18
55 22 58 5 4 6 14 2 44 0 6 -7 3 -13 -6 -7 -8 -21 -18 -32 -22 -15 -5 -17 -2
-12 19 4 15 2 25 -4 25 -6 0 -8 5 -5 10 4 6 11 7 17 4 7 -5 9 0 6 14 -4 12 -2
22 3 22 5 0 9 7 9 15 0 32 22 115 31 115 5 0 9 -8 9 -19z m180 -6 c0 -14 -4
-25 -10 -25 -11 0 -14 33 -3 43 11 11 13 8 13 -18z m2105 15 c3 -5 -1 -10 -9
-10 -9 0 -16 5 -16 10 0 6 4 10 9 10 6 0 13 -4 16 -10z m165 0 c11 -7 5 -8
-20 -4 -43 8 -51 14 -19 14 13 0 31 -5 39 -10z m112 -1 c2 -6 39 -17 83 -25
105 -18 129 -18 122 1 -10 25 11 27 28 1 9 -13 30 -26 47 -30 17 -3 29 -9 26
-11 -6 -7 -253 30 -352 51 -21 5 -25 8 -15 15 20 12 57 11 61 -2z m-2455 -31
c-3 -8 -6 -5 -6 6 -1 11 2 17 5 13 3 -3 4 -12 1 -19z m-4642 2 c-2 -3 -25 -7
-52 -8 -30 -2 -43 1 -35 6 15 10 93 12 87 2z m1653 3 c-10 -2 -28 -2 -40 0
-13 2 -5 4 17 4 22 1 32 -1 23 -4z m140 0 c-21 -2 -55 -2 -75 0 -21 2 -4 4 37
4 41 0 58 -2 38 -4z m82 3 c0 -2 -7 -7 -16 -10 -8 -3 -12 -2 -9 4 6 10 25 14
25 6z m83 -8 c-15 -7 -30 -7 -50 0 -26 10 -24 10 22 11 42 0 46 -2 28 -11z
m-2106 -4 c-3 -3 -12 -4 -19 -1 -8 3 -5 6 6 6 11 1 17 -2 13 -5z m463 -6 c0
-4 8 -8 17 -8 21 0 6 -16 -22 -23 -11 -3 -4 -4 15 -4 19 1 45 -2 58 -7 16 -5
22 -3 22 7 0 22 89 39 217 43 85 2 114 0 123 -11 14 -17 -7 -24 -125 -40 l-90
-12 140 -1 c77 0 191 -1 254 -1 212 -2 104 -14 -151 -17 -139 -3 -275 -6 -303
-8 -36 -3 -44 -2 -30 5 13 6 -9 8 -67 4 -79 -5 -87 -3 -81 12 5 13 2 15 -18 8
-13 -5 -67 -10 -119 -11 -74 -3 -91 -1 -76 8 11 6 42 12 70 13 28 1 63 3 78 4
17 0 29 8 33 20 4 13 12 18 22 14 10 -4 14 -2 10 4 -3 5 0 10 8 10 8 0 15 -4
15 -9z m137 6 c-3 -3 -12 -4 -19 -1 -8 3 -5 6 6 6 11 1 17 -2 13 -5z m501 -1
c-15 -2 -42 -2 -60 0 -18 2 -6 4 27 4 33 0 48 -2 33 -4z m85 0 c-7 -2 -19 -2
-25 0 -7 3 -2 5 12 5 14 0 19 -2 13 -5z m3787 -3 c0 -5 -5 -10 -11 -10 -5 0
-7 5 -4 10 3 6 8 10 11 10 2 0 4 -4 4 -10z m2194 -1 c-3 -5 -13 -9 -23 -9 -9
0 -22 -5 -28 -11 -6 -6 -23 -9 -39 -6 l-29 4 24 8 c21 7 22 9 7 14 -9 4 8 7
38 7 31 1 53 -3 50 -7z m-2424 -9 c0 -5 -5 -10 -11 -10 -5 0 -7 5 -4 10 3 6 8
10 11 10 2 0 4 -4 4 -10z m192 -15 c4 -5 2 -15 -4 -22 -7 -9 -7 -13 1 -13 6 0
11 -5 11 -10 0 -6 -9 -5 -21 2 -16 10 -23 10 -26 1 -6 -18 -60 4 -66 28 -7 26
11 24 34 -3 10 -13 18 -18 19 -11 0 6 -5 15 -10 18 -6 4 -8 11 -4 16 7 12 56
8 66 -6z m-3539 -2 c-7 -2 -21 -2 -30 0 -10 3 -4 5 12 5 17 0 24 -2 18 -5z
m63 -11 c-10 -2 -22 0 -28 6 -6 6 0 7 19 4 21 -5 23 -7 9 -10z m994 2 c0 -2
-16 -4 -36 -4 -19 0 -33 4 -30 8 5 8 66 4 66 -4z m453 9 c-55 -4 -65 -14 -35
-33 16 -11 16 -11 -1 -6 -10 3 -30 6 -45 6 -25 0 -25 1 -6 15 18 13 16 14 -24
15 -24 0 -63 -5 -87 -11 -25 -6 -53 -8 -62 -4 -33 15 34 23 177 22 74 0 111
-2 83 -4z m3392 -3 c3 -5 20 -10 36 -10 41 0 119 -20 119 -31 0 -5 -6 -9 -12
-9 -10 1 -127 24 -145 29 -2 1 -7 1 -13 1 -5 0 -10 7 -10 15 0 17 16 20 25 5z
m-4272 -10 c26 0 47 -4 47 -9 0 -5 -52 -8 -115 -7 -63 0 -115 4 -115 8 0 9 58
16 100 12 19 -2 56 -4 83 -4z m284 4 c-3 -3 -12 -4 -19 -1 -8 3 -5 6 6 6 11 1
17 -2 13 -5z m-1061 -19 c16 -16 7 -19 -20 -9 -18 7 -22 24 -5 24 6 0 17 -7
25 -15z m567 4 c-7 -7 -34 -7 -84 -1 l-74 9 85 2 c59 1 81 -2 73 -10z m4322 0
c17 -1 23 -3 12 -6 -9 -2 -14 -9 -11 -15 4 -7 0 -7 -12 0 -24 12 -112 13 -120
1 -3 -5 -15 -9 -27 -9 -35 0 -6 19 44 29 24 5 53 7 64 5 11 -2 34 -4 50 -5z
m345 -4 c-7 -8 -14 -15 -15 -15 -2 0 -5 7 -9 15 -4 10 1 15 16 15 17 0 18 -2
8 -15z m-6317 -2 c-7 -2 -21 -2 -30 0 -10 3 -4 5 12 5 17 0 24 -2 18 -5z
m1962 -34 c-102 -11 -122 -16 -62 -18 66 -1 59 -21 -8 -21 -34 0 -55 4 -55 11
0 8 -5 8 -15 -1 -8 -7 -16 -10 -16 -6 -1 3 -2 10 -3 15 0 5 -4 12 -7 16 -8 8
-59 -16 -59 -28 0 -5 -18 -7 -43 -3 -24 4 -128 6 -233 6 -104 -1 -199 -1 -211
0 -13 0 -35 1 -50 2 -107 4 -515 -5 -504 -12 12 -7 12 -9 0 -13 -8 -2 -6 -3 3
-2 10 2 45 -4 80 -13 55 -14 59 -17 40 -25 -17 -8 -37 -6 -75 6 -38 12 -66 14
-107 8 -56 -8 -56 -8 15 -25 11 -3 2 -4 -20 -3 -22 0 -46 -3 -53 -7 -8 -4 -16
-5 -19 -2 -4 3 0 6 8 7 8 1 3 5 -11 9 l-25 8 25 1 c20 1 22 3 10 11 -8 5 -29
7 -47 4 -17 -3 -40 -1 -50 5 -17 10 -17 10 3 11 11 0 24 3 27 7 4 3 31 7 60 9
28 1 43 0 32 -3 -11 -3 -24 -9 -30 -14 -13 -13 26 -11 66 3 l34 12 -30 7 c-48
11 -173 10 -180 -1 -3 -5 -22 -10 -41 -10 -31 0 -39 -8 -35 -32 0 -5 -8 -8
-19 -8 -13 0 -20 7 -20 20 0 16 -5 19 -22 15 -46 -10 -143 -23 -147 -19 -9 8
10 17 46 21 21 2 61 8 88 12 41 7 29 9 -70 9 -90 1 -114 -2 -95 -9 24 -10 24
-11 6 -25 -13 -9 -15 -14 -6 -14 7 0 11 -3 8 -6 -3 -3 -26 10 -51 29 l-46 35
182 7 c100 3 309 5 464 3 164 -2 279 1 276 6 -3 5 5 6 18 3 61 -15 104 -18 89
-8 -12 8 -8 11 18 11 18 0 31 -4 27 -9 -3 -5 8 -9 24 -9 17 1 28 4 26 8 -3 4
57 8 133 8 75 0 155 3 177 6 30 5 35 4 20 -3 -14 -7 5 -10 71 -9 51 0 97 -3
103 -6 6 -4 11 -3 11 2 0 5 6 9 13 10 6 1 36 5 66 9 29 4 103 6 165 4 l111 -4
-80 -8z m5037 -1 c19 -11 24 -18 17 -29 -12 -19 -11 -29 1 -29 6 0 10 5 10 11
0 18 27 39 50 39 16 0 20 -4 16 -16 -5 -12 -2 -15 11 -9 38 14 73 17 73 6 0
-6 19 -11 47 -11 28 0 43 -4 38 -9 -6 -5 -32 -6 -60 -1 -27 4 -60 4 -73 -1
-13 -5 -41 -9 -63 -9 -29 0 -45 -6 -61 -25 -14 -17 -32 -25 -52 -25 -26 1 -29
3 -16 13 16 13 60 73 60 82 0 3 -26 5 -57 5 -32 0 -69 3 -83 7 l-25 7 25 7
c34 11 109 4 142 -13z m103 10 c4 -4 -11 -7 -34 -6 -23 0 -43 3 -45 7 -6 9 71
7 79 -1z m-6932 -5 c-7 -2 -19 -2 -25 0 -7 3 -2 5 12 5 14 0 19 -2 13 -5z
m5584 1 c-3 -3 -12 -4 -19 -1 -8 3 -5 6 6 6 11 1 17 -2 13 -5z m440 0 c-3 -3
-12 -4 -19 -1 -8 3 -5 6 6 6 11 1 17 -2 13 -5z m569 -1 c-4 -5 -29 -13 -54
-19 -136 -34 -219 -56 -237 -64 -11 -6 -85 -21 -165 -34 -201 -33 -238 -38
-220 -27 8 5 49 14 90 20 117 17 278 48 292 57 7 5 65 23 128 40 112 31 181
42 166 27z m-4591 -21 c-3 -3 -11 0 -18 7 -9 10 -8 11 6 5 10 -3 15 -9 12 -12z
m550 8 c15 -6 8 -9 -28 -9 -30 -1 -46 3 -42 9 7 12 42 12 70 0z m3082 -6 c-3
-3 -12 -4 -19 -1 -8 3 -5 6 6 6 11 1 17 -2 13 -5z m233 -3 c0 -12 -21 -19 -38
-13 -11 4 -11 6 0 13 17 11 38 11 38 0z m60 1 c0 -13 -12 -22 -22 -16 -10 6
-1 24 13 24 5 0 9 -4 9 -8z m277 -6 c4 -3 -17 -6 -46 -6 -29 0 -50 4 -47 9 6
9 83 7 93 -3z m-6920 -2 c-3 -3 -12 -4 -19 -1 -8 3 -5 6 6 6 11 1 17 -2 13 -5z
m458 -5 c89 -1 110 -3 80 -9 -55 -11 -226 -3 -239 11 -8 9 -4 10 14 5 14 -3
79 -6 145 -7z m995 -29 c0 -13 -7 -20 -20 -20 -11 0 -20 5 -20 10 0 6 -17 11
-37 11 l-38 2 35 7 c64 14 80 12 80 -10z m1220 10 c16 -10 15 -11 -23 -28 -33
-14 -76 -15 -97 -2 -18 11 -14 15 35 28 52 13 67 14 85 2z m3686 -5 c9 -8 24
-15 34 -15 10 0 22 -5 26 -12 5 -8 -6 -9 -40 -5 -51 7 -86 22 -86 37 0 16 50
12 66 -5z m-3899 -1 c-3 -3 -12 -4 -19 -1 -8 3 -5 6 6 6 11 1 17 -2 13 -5z
m3363 2 c0 -2 -7 -9 -15 -16 -13 -11 -14 -10 -9 4 5 14 24 23 24 12z m853 -3
c-13 -2 -33 -2 -45 0 -13 2 -3 4 22 4 25 0 35 -2 23 -4z m-5686 -24 c1 -15 -2
-19 -13 -15 -9 3 -22 6 -30 6 -12 0 -13 3 -2 15 19 21 44 18 45 -6z m1411 14
c18 -4 20 -8 10 -14 -9 -6 -2 -9 20 -9 17 0 32 -4 32 -10 0 -13 -143 -13 -157
1 -7 7 -41 7 -113 0 -126 -13 -140 -14 -140 -1 0 6 24 10 53 11 28 0 97 6 152
13 55 8 105 14 110 15 6 0 21 -2 33 -6z m1005 -10 c-7 -2 -19 -2 -25 0 -7 3
-2 5 12 5 14 0 19 -2 13 -5z m-3120 -10 c-7 -2 -21 -2 -30 0 -10 3 -4 5 12 5
17 0 24 -2 18 -5z m172 -3 c3 -5 -1 -10 -9 -10 -9 0 -16 5 -16 10 0 6 4 10 9
10 6 0 13 -4 16 -10z m52 4 c-3 -3 -12 -4 -19 -1 -8 3 -5 6 6 6 11 1 17 -2 13
-5z m6076 -1 c-7 -2 -19 -2 -25 0 -7 3 -2 5 12 5 14 0 19 -2 13 -5z m-6466 -9
c-3 -3 -12 -4 -19 -1 -8 3 -5 6 6 6 11 1 17 -2 13 -5z m63 -3 c0 -4 -11 -6
-25 -3 -14 2 -25 6 -25 8 0 2 11 4 25 4 14 0 25 -4 25 -9z m183 2 c-7 -2 -19
-2 -25 0 -7 3 -2 5 12 5 14 0 19 -2 13 -5z m1582 -3 c4 -6 -6 -10 -22 -9 -25
0 -26 1 -8 9 11 5 21 9 22 9 1 1 5 -3 8 -9z m575 0 c-20 -13 -33 -13 -25 0 3
6 14 10 23 10 15 0 15 -2 2 -10z m-1571 -24 c12 -8 13 -8 7 2 -8 14 3 16 23 3
42 -27 -41 -37 -134 -16 -55 12 -62 18 -31 24 41 8 118 1 135 -13z m6651 -17
c-89 -19 -148 -24 -136 -11 10 9 130 29 181 30 30 0 18 -5 -45 -19z m-6852 4
c-10 -2 -26 -2 -35 0 -10 3 -2 5 17 5 19 0 27 -2 18 -5z m1032 -3 c0 -5 -15
-10 -32 -10 -25 0 -29 3 -18 10 20 13 50 13 50 0z m668 3 c-30 -8 -20 -23 14
-23 19 0 28 -4 23 -9 -6 -5 -68 -11 -140 -15 -74 -3 -124 -2 -117 3 8 4 13 12
12 17 0 5 6 11 16 12 10 3 14 0 10 -7 -5 -7 3 -11 19 -11 14 0 24 4 20 9 -3 5
0 13 6 17 8 4 9 3 5 -4 -5 -9 9 -12 48 -12 43 0 56 3 56 15 0 9 9 15 23 14 16
-1 18 -2 5 -6z m4916 -8 c-4 -9 -19 -15 -38 -15 -29 1 -30 1 -12 15 26 20 57
20 50 0z m-6049 -5 c4 -6 -14 -10 -47 -10 l-53 0 50 -25 c28 -13 48 -25 45
-25 -3 0 -21 -4 -40 -10 -30 -8 -32 -7 -18 4 16 11 11 14 -37 25 -31 7 -53 16
-50 21 3 5 -9 14 -27 19 -26 7 -13 9 69 10 58 1 104 -3 108 -9z m565 0 c12 -8
9 -10 -12 -10 -15 0 -30 5 -33 10 -8 13 25 13 45 0z m230 -5 c-43 -25 -51 -28
-57 -21 -12 12 21 36 51 36 l31 0 -25 -15z m759 11 c-2 -2 -20 -6 -39 -10 -25
-4 -31 -3 -20 4 14 9 69 15 59 6z m-2689 -16 c0 -5 -16 -10 -35 -10 -19 0 -35
5 -35 10 0 6 16 10 35 10 19 0 35 -4 35 -10z m940 -14 c0 -7 -25 -11 -72 -12
-40 0 -86 -3 -103 -7 -31 -8 -66 6 -51 20 4 4 42 9 83 10 41 1 77 4 79 6 9 8
64 -6 64 -17z m258 17 c-10 -2 -26 -2 -35 0 -10 3 -2 5 17 5 19 0 27 -2 18 -5z
m257 -3 c3 -5 -3 -10 -14 -10 -11 0 -23 5 -26 10 -3 6 3 10 14 10 11 0 23 -4
26 -10z m568 3 c-7 -2 -21 -2 -30 0 -10 3 -4 5 12 5 17 0 24 -2 18 -5z m497 3
c0 -2 -7 -7 -16 -10 -8 -3 -12 -2 -9 4 6 10 25 14 25 6z m73 -3 c-7 -2 -21 -2
-30 0 -10 3 -4 5 12 5 17 0 24 -2 18 -5z m1154 1 c-3 -3 -12 -4 -19 -1 -8 3
-5 6 6 6 11 1 17 -2 13 -5z m3293 -25 c-37 -23 -51 -24 -43 -3 7 18 42 34 61
26 8 -3 2 -11 -18 -23z m-6352 14 c-10 -2 -28 -2 -40 0 -13 2 -5 4 17 4 22 1
32 -1 23 -4z m1755 0 c-24 -2 -62 -2 -85 0 -24 2 -5 4 42 4 47 0 66 -2 43 -4z
m2968 -7 c5 3 9 0 9 -5 0 -13 -37 -15 -44 -2 -4 5 0 11 6 14 7 2 15 0 16 -5 2
-4 8 -6 13 -2z m1364 4 c4 -6 -5 -10 -20 -10 -15 0 -24 4 -20 10 3 6 12 10 20
10 8 0 17 -4 20 -10z m-6512 -7 c-7 -2 -19 -2 -25 0 -7 3 -2 5 12 5 14 0 19
-2 13 -5z m956 -9 c2 -2 -12 -4 -33 -4 -22 0 -35 4 -31 10 5 9 52 4 64 -6z
m548 9 c-20 -2 -52 -2 -70 0 -17 2 0 4 38 4 39 0 53 -2 32 -4z m236 -10 c-7
-2 -21 -2 -30 0 -10 3 -4 5 12 5 17 0 24 -2 18 -5z m1107 -3 c11 -7 4 -10 -25
-9 -31 0 -36 2 -20 9 26 11 28 11 45 0z m4059 6 c-2 -2 -29 -7 -59 -9 -35 -4
-48 -3 -35 3 20 9 102 14 94 6z m428 -2 c-3 -3 -12 -4 -19 -1 -8 3 -5 6 6 6
11 1 17 -2 13 -5z m-7660 -10 c-3 -3 -12 -4 -19 -1 -8 3 -5 6 6 6 11 1 17 -2
13 -5z m2977 -3 c4 -5 -2 -7 -13 -4 -10 3 -22 0 -25 -6 -9 -13 -46 -15 -46 -2
0 16 75 26 84 12z m4026 -5 c-31 -17 -154 -30 -145 -16 3 6 23 10 43 11 20 0
46 4 57 9 11 5 31 9 45 9 l25 0 -25 -13z m-6927 -3 c-7 -2 -19 -2 -25 0 -7 3
-2 5 12 5 14 0 19 -2 13 -5z m410 0 c-7 -2 -19 -2 -25 0 -7 3 -2 5 12 5 14 0
19 -2 13 -5z m54 1 c-3 -3 -12 -4 -19 -1 -8 3 -5 6 6 6 11 1 17 -2 13 -5z
m531 -4 c17 0 32 -4 32 -10 0 -13 -68 -29 -115 -26 -22 2 -94 4 -160 6 -132 3
-129 5 20 17 97 7 98 8 45 14 -36 4 -20 5 45 3 55 -2 115 -3 133 -4z m1225 3
c-7 -2 -21 -2 -30 0 -10 3 -4 5 12 5 17 0 24 -2 18 -5z m807 -8 c0 -10 -10
-15 -31 -15 -16 0 -28 4 -24 9 3 5 -7 12 -22 14 -16 2 -5 5 25 6 40 1 52 -2
52 -14z m2290 11 c0 -3 -4 -8 -10 -11 -5 -3 -10 -1 -10 4 0 6 5 11 10 11 6 0
10 -2 10 -4z m-5147 -13 c-7 -2 -19 -2 -25 0 -7 3 -2 5 12 5 14 0 19 -2 13 -5z
m2424 1 c-3 -3 -12 -4 -19 -1 -8 3 -5 6 6 6 11 1 17 -2 13 -5z m2643 2 c0 -3
-4 -8 -10 -11 -5 -3 -10 -1 -10 4 0 6 5 11 10 11 6 0 10 -2 10 -4z m-4682 -18
c-6 -18 -28 -21 -28 -4 0 9 7 16 16 16 9 0 14 -5 12 -12z m1897 1 l40 0 -45
-15 c-50 -15 -150 -19 -115 -4 l20 9 -20 1 c-14 2 -12 5 10 10 17 5 39 6 50 4
11 -2 38 -4 60 -5z m198 4 c-7 -2 -19 -2 -25 0 -7 3 -2 5 12 5 14 0 19 -2 13
-5z m-2138 -13 c-3 -5 -23 -10 -43 -10 -28 0 -33 3 -22 10 20 13 73 13 65 0z
m4690 -1 c11 -17 0 -20 -21 -4 -17 13 -17 14 -2 15 9 0 20 -5 23 -11z m1342
-5 c-3 -3 -12 -4 -19 -1 -8 3 -5 6 6 6 11 1 17 -2 13 -5z m50 0 c-3 -3 -12 -4
-19 -1 -8 3 -5 6 6 6 11 1 17 -2 13 -5z m-6394 -11 c-18 -2 -48 -2 -65 0 -18
2 -4 4 32 4 36 0 50 -2 33 -4z m2100 0 c-7 -2 -19 -2 -25 0 -7 3 -2 5 12 5 14
0 19 -2 13 -5z m-2295 -10 c-15 -2 -42 -2 -60 0 -18 2 -6 4 27 4 33 0 48 -2
33 -4z m549 -5 c-28 -7 -42 -7 -50 1 -8 8 2 11 39 10 l49 -1 -38 -10z m5813 2
c0 -5 -4 -10 -10 -10 -5 0 -10 5 -10 10 0 6 5 10 10 10 6 0 10 -4 10 -10z
m1080 0 c0 -5 -7 -10 -16 -10 -8 0 -12 5 -9 10 3 6 10 10 16 10 5 0 9 -4 9
-10z m235 0 c3 -5 -1 -10 -10 -10 -9 0 -13 5 -10 10 3 6 8 10 10 10 2 0 7 -4
10 -10z m-6725 -28 c2 -1 -60 -2 -138 -1 -91 0 -142 5 -142 11 0 7 36 9 108 5
59 -3 114 -2 122 3 9 5 20 4 30 -3 8 -6 17 -13 20 -15z m1434 14 c22 -11 24
-15 10 -20 -26 -10 -344 -6 -344 5 0 5 50 10 113 10 61 1 126 5 142 9 45 11
50 11 79 -4z m-1334 -6 c0 -5 -17 -10 -37 -9 -34 1 -35 2 -13 9 36 11 50 11
50 0z m1635 0 c4 -6 -7 -10 -27 -10 -18 -1 -71 -3 -118 -5 -47 -2 -94 -1 -105
3 -11 4 34 9 100 12 66 4 125 7 132 8 6 1 15 -2 18 -8z m-2522 -7 c-7 -2 -19
-2 -25 0 -7 3 -2 5 12 5 14 0 19 -2 13 -5z m50 0 c-7 -2 -19 -2 -25 0 -7 3 -2
5 12 5 14 0 19 -2 13 -5z m920 0 c-7 -2 -19 -2 -25 0 -7 3 -2 5 12 5 14 0 19
-2 13 -5z m100 0 c-13 -2 -33 -2 -45 0 -13 2 -3 4 22 4 25 0 35 -2 23 -4z
m339 0 c-40 -2 -103 -2 -140 0 -37 2 -4 3 73 3 77 0 107 -2 67 -3z m186 0
c-15 -2 -42 -2 -60 0 -18 2 -6 4 27 4 33 0 48 -2 33 -4z m240 0 c-10 -2 -28
-2 -40 0 -13 2 -5 4 17 4 22 1 32 -1 23 -4z m349 -31 c18 -6 20 -10 12 -22 -8
-11 -12 -12 -16 -2 -2 6 -17 12 -31 13 -15 1 -38 5 -52 9 -20 7 -17 8 20 8 25
0 55 -3 67 -6z m-1217 -12 c12 -8 11 -10 -7 -10 -13 0 -23 5 -23 10 0 13 11
13 30 0z m783 3 c-7 -2 -19 -2 -25 0 -7 3 -2 5 12 5 14 0 19 -2 13 -5z m590 0
c-7 -2 -21 -2 -30 0 -10 3 -4 5 12 5 17 0 24 -2 18 -5z m450 0 c-7 -2 -19 -2
-25 0 -7 3 -2 5 12 5 14 0 19 -2 13 -5z m227 3 c0 -3 -4 -8 -10 -11 -5 -3 -10
-1 -10 4 0 6 5 11 10 11 6 0 10 -2 10 -4z m375 -10 c106 -4 108 -4 92 -21 -11
-11 -23 -12 -46 -5 -17 5 -111 12 -209 15 -97 4 -181 11 -187 16 -6 6 44 7
140 3 83 -3 177 -7 210 -8z m325 3 c8 -1 38 1 65 4 l50 7 -60 -19 -60 -19 55
-3 c97 -6 141 -7 334 -8 104 -1 187 -3 185 -5 -10 -9 -315 -14 -404 -6 -74 6
-102 5 -108 -3 -6 -9 -10 -9 -14 1 -2 6 -18 12 -34 12 -16 0 -29 5 -29 10 0 6
-7 10 -15 10 -8 0 -15 4 -15 9 0 5 -23 7 -52 5 -29 -3 -71 -1 -93 5 -32 8 -19
9 70 6 61 -2 117 -5 125 -6z m3125 1 c-3 -5 -12 -10 -18 -10 -7 0 -6 4 3 10
19 12 23 12 15 0z m-6050 -10 c4 -7 -39 -9 -137 -8 -93 1 -124 3 -88 7 106 11
218 12 225 1z m3212 4 c-3 -3 -12 -4 -19 -1 -8 3 -5 6 6 6 11 1 17 -2 13 -5z
m291 -1 c-27 -2 -69 -2 -95 0 -27 2 -5 3 47 3 52 0 74 -1 48 -3z m-2373 -13
l20 -9 -20 1 c-11 0 -33 4 -50 8 l-30 8 30 0 c17 0 39 -3 50 -8z m2163 3 c-10
-2 -26 -2 -35 0 -10 3 -2 5 17 5 19 0 27 -2 18 -5z m-2365 -23 c70 -6 135 -10
144 -10 9 0 13 -3 10 -7 -4 -3 -37 -6 -75 -5 -37 1 -61 -1 -54 -4 23 -11 12
-22 -20 -19 -18 2 -41 3 -50 4 -33 2 -18 20 20 23 20 2 -16 7 -80 12 -65 5
-118 13 -118 18 0 5 21 6 48 3 26 -3 105 -10 175 -15z m1834 14 c-3 -3 -12 -4
-19 -1 -8 3 -5 6 6 6 11 1 17 -2 13 -5z m3713 2 c0 -3 -4 -8 -10 -11 -5 -3
-10 -1 -10 4 0 6 5 11 10 11 6 0 10 -2 10 -4z m-5287 -13 c-7 -2 -19 -2 -25 0
-7 3 -2 5 12 5 14 0 19 -2 13 -5z m1221 -15 c14 -15 5 -16 -117 -16 -72 -1
-163 3 -202 7 l-70 8 55 2 c30 1 91 3 135 3 l80 1 -70 7 c-59 7 -51 7 51 6 96
-2 125 -5 138 -18z m1249 15 c-7 -2 -21 -2 -30 0 -10 3 -4 5 12 5 17 0 24 -2
18 -5z m-4433 -19 c0 -2 -21 -4 -47 -3 -37 1 -42 3 -23 8 24 7 70 3 70 -5z
m383 9 c-7 -2 -19 -2 -25 0 -7 3 -2 5 12 5 14 0 19 -2 13 -5z m907 -7 c-24 -9
-30 -15 -20 -19 9 -3 3 -6 -13 -6 -16 -1 -26 -5 -23 -10 5 -8 -95 -23 -103
-15 -8 7 34 34 49 31 8 -1 26 6 40 16 14 10 42 17 65 16 l40 -1 -35 -12z
m5610 4 c0 -5 -11 -10 -25 -10 -14 0 -25 -4 -25 -10 0 -5 -7 -10 -15 -10 -12
0 -13 4 -4 18 12 19 69 29 69 12z m307 3 c-4 -3 -2 -12 4 -20 9 -10 8 -13 -5
-13 -9 0 -16 8 -16 20 0 11 5 20 12 20 6 0 8 -3 5 -7z m-6527 -13 c0 -5 -4
-10 -10 -10 -5 0 -10 -9 -10 -20 0 -15 7 -20 25 -20 14 0 25 -5 25 -11 0 -7
11 -9 28 -6 15 2 36 1 47 -3 16 -6 11 -9 -24 -15 -26 -4 -46 -3 -50 3 -3 5
-32 15 -63 22 -32 7 -58 15 -58 17 0 1 10 14 22 28 21 24 68 35 68 15z m300 0
c0 -9 -149 -4 -159 6 -2 2 32 4 77 4 47 0 82 -4 82 -10z m140 0 c0 -5 -9 -10
-21 -10 -11 0 -17 5 -14 10 3 6 13 10 21 10 8 0 14 -4 14 -10z m2243 3 c-18
-2 -48 -2 -65 0 -18 2 -4 4 32 4 36 0 50 -2 33 -4z m1507 3 c0 -3 -4 -8 -10
-11 -5 -3 -10 -1 -10 4 0 6 5 11 10 11 6 0 10 -2 10 -4z m815 -6 c3 -5 -1 -10
-10 -10 -9 0 -13 5 -10 10 3 6 8 10 10 10 2 0 7 -4 10 -10z m965 6 c0 -9 -40
-13 -46 -5 -3 5 6 9 20 9 14 0 26 -2 26 -4z m-5556 -37 c6 -5 -21 -8 -62 -7
-40 0 -72 5 -72 10 0 4 7 8 15 8 8 0 15 4 15 9 0 10 91 -7 104 -20z m536 21
c0 -13 -20 -13 -40 0 -12 8 -9 10 13 10 15 0 27 -4 27 -10z m4680 0 c0 -5 -5
-10 -11 -10 -5 0 -7 5 -4 10 3 6 8 10 11 10 2 0 4 -4 4 -10z m-4923 -20 c18
-14 21 -20 10 -20 -9 0 -19 4 -22 10 -3 5 -20 14 -38 19 l-32 9 28 1 c16 1 40
-8 54 -19z m966 13 c-7 -2 -19 -2 -25 0 -7 3 -2 5 12 5 14 0 19 -2 13 -5z
m500 0 c-7 -2 -21 -2 -30 0 -10 3 -4 5 12 5 17 0 24 -2 18 -5z m937 -3 c0 -5
-6 -11 -12 -11 -7 -1 1 -5 17 -9 24 -6 17 -8 -33 -9 -36 0 -61 3 -58 8 3 5 15
7 26 4 12 -3 22 1 26 11 7 17 34 22 34 6z m3340 -11 c-43 -12 -54 -11 -41 5 7
8 22 11 39 8 l27 -6 -25 -7z m-6194 -9 c0 -15 -7 -20 -26 -20 -18 0 -21 3 -11
9 7 5 10 14 7 20 -4 7 0 11 11 11 12 0 19 -7 19 -20z m1594 10 c23 -7 22 -8
-10 -8 -19 0 -60 3 -90 8 l-55 7 65 1 c36 0 76 -4 90 -8z m168 3 c-15 -2 -42
-2 -60 0 -18 2 -6 4 27 4 33 0 48 -2 33 -4z m62 -3 c0 -5 -7 -7 -15 -4 -8 4
-15 8 -15 10 0 2 7 4 15 4 8 0 15 -4 15 -10z m1157 4 c-3 -3 -12 -4 -19 -1 -8
3 -5 6 6 6 11 1 17 -2 13 -5z m2443 -2 c0 -5 -9 -17 -19 -26 -14 -13 -24 -15
-37 -8 -11 6 -13 11 -5 16 6 4 11 3 11 -3 0 -6 7 -8 16 -4 8 3 13 12 10 19 -3
8 1 14 9 14 8 0 15 -4 15 -8z m-6077 -9 c-7 -2 -19 -2 -25 0 -7 3 -2 5 12 5
14 0 19 -2 13 -5z m272 -3 c8 -13 -15 -13 -35 0 -12 8 -11 10 7 10 12 0 25 -4
28 -10z m310 0 c4 -6 -6 -7 -27 -3 -44 8 -48 13 -10 13 17 0 34 -4 37 -10z
m965 -3 c-14 -7 -47 -13 -75 -14 -27 -1 -45 1 -39 3 15 6 95 22 119 23 17 1
16 -1 -5 -12z m495 3 c26 -7 23 -8 -20 -8 -27 0 -59 3 -70 8 -26 11 46 11 90
0z m1355 0 c0 -5 -35 -9 -82 -9 -46 1 -87 0 -93 -1 -5 -2 -17 -1 -25 3 -8 3
-22 8 -30 10 -8 3 40 6 108 6 73 1 122 -3 122 -9z m387 4 c-3 -3 -12 -4 -19
-1 -8 3 -5 6 6 6 11 1 17 -2 13 -5z m-3697 -19 c0 -9 -6 -12 -15 -9 -8 4 -12
10 -9 15 8 14 24 10 24 -6z m43 8 c-7 -2 -19 -2 -25 0 -7 3 -2 5 12 5 14 0 19
-2 13 -5z m354 1 c-3 -3 -12 -4 -19 -1 -8 3 -5 6 6 6 11 1 17 -2 13 -5z m1269
-9 c14 -13 12 -15 -15 -15 -39 0 -41 20 -3 29 2 1 10 -6 18 -14z m1024 3 c0
-4 -7 -8 -15 -8 -8 0 -15 4 -15 8 0 5 7 9 15 9 8 0 15 -4 15 -9z m958 6 c89
-9 57 -19 -49 -16 -120 4 -181 20 -74 20 39 0 94 -2 123 -4z m-4190 -14 c12 0
22 -4 22 -10 0 -12 -118 -2 -140 12 -10 6 4 7 40 4 30 -3 65 -6 78 -6z m1235
3 c-7 -2 -19 -2 -25 0 -7 3 -2 5 12 5 14 0 19 -2 13 -5z m2237 -3 c-25 -3 -73
-5 -107 -4 -36 2 -63 -1 -63 -6 0 -6 35 -10 78 -10 61 -1 73 -3 58 -12 -13 -7
-64 -9 -160 -4 -181 8 -243 24 -101 25 55 1 94 5 88 9 -7 4 47 8 120 8 80 1
114 -2 87 -6z m-3645 -10 c-3 -5 -13 -10 -21 -10 -8 0 -12 5 -9 10 3 6 13 10
21 10 8 0 12 -4 9 -10z m842 4 c-3 -3 -12 -4 -19 -1 -8 3 -5 6 6 6 11 1 17 -2
13 -5z m1063 -4 c0 -5 -11 -10 -24 -10 -12 0 -52 -3 -87 -6 -45 -5 -61 -3 -54
4 6 6 39 13 75 15 36 2 71 4 78 5 6 1 12 -2 12 -8z m2046 2 c-5 -8 -66 -4 -66
4 0 2 16 4 36 4 19 0 33 -4 30 -8z m534 4 c0 -11 -19 -15 -25 -6 -3 5 1 10 9
10 9 0 16 -2 16 -4z m53 -3 c-7 -2 -21 -2 -30 0 -10 3 -4 5 12 5 17 0 24 -2
18 -5z m1101 -8 c3 -8 0 -15 -6 -15 -9 0 -9 -3 0 -12 18 -18 16 -59 -3 -52 -8
4 -15 2 -15 -4 0 -21 -29 -20 -60 3 -18 14 -38 26 -44 28 -8 3 -7 9 2 20 15
18 46 11 38 -8 -2 -7 2 -21 9 -32 14 -17 14 -16 15 8 0 14 5 30 12 37 9 9 9
12 -2 13 -8 1 -18 1 -22 0 -20 -3 -5 18 15 22 43 8 55 7 61 -8z m-3914 -5 c0
-5 -12 -10 -26 -10 -14 0 -23 4 -19 10 3 6 15 10 26 10 10 0 19 -4 19 -10z
m330 2 c-25 -14 -179 -46 -187 -39 -10 11 0 16 41 23 22 3 48 9 58 13 29 11
106 13 88 3z m760 -2 c0 -5 -2 -10 -4 -10 -3 0 -8 5 -11 10 -3 6 -1 10 4 10 6
0 11 -4 11 -10z m1177 4 c-3 -3 -12 -4 -19 -1 -8 3 -5 6 6 6 11 1 17 -2 13 -5z
m1832 -15 c-15 -9 -32 -2 -24 11 3 5 13 6 21 3 12 -4 13 -8 3 -14z m296 11 c3
-5 1 -10 -4 -10 -6 0 -11 5 -11 10 0 6 2 10 4 10 3 0 8 -4 11 -10z m-1891 -20
c5 -5 23 -10 38 -10 15 0 28 -5 28 -11 0 -7 -13 -9 -37 -5 -21 4 -54 7 -73 6
-19 0 -45 5 -57 11 -18 10 -32 10 -60 1 -26 -9 -60 -9 -108 -3 l-70 8 62 2
c34 0 65 6 68 11 8 13 195 4 209 -10z m1701 2 c-46 -6 -55 -22 -12 -22 20 0
37 -3 37 -7 0 -12 -70 -7 -83 6 -6 6 -17 11 -25 11 -10 0 -12 3 -4 13 7 8 28
10 64 7 37 -3 44 -5 23 -8z m443 -16 c3 -12 -1 -17 -10 -14 -7 3 -15 13 -16
22 -3 12 1 17 10 14 7 -3 15 -13 16 -22z m-6291 8 c-3 -3 -12 -4 -19 -1 -8 3
-5 6 6 6 11 1 17 -2 13 -5z m1291 -1 c-10 -2 -28 -2 -40 0 -13 2 -5 4 17 4 22
1 32 -1 23 -4z m189 1 c-3 -3 -12 -4 -19 -1 -8 3 -5 6 6 6 11 1 17 -2 13 -5z
m78 -4 c16 -7 11 -9 -20 -9 -29 -1 -36 2 -25 9 17 11 19 11 45 0z m215 0 c0
-5 -4 -10 -10 -10 -5 0 -10 5 -10 10 0 6 5 10 10 10 6 0 10 -4 10 -10z m2487
4 c-3 -3 -12 -4 -19 -1 -8 3 -5 6 6 6 11 1 17 -2 13 -5z m1928 -4 c3 -5 1 -10
-4 -10 -6 0 -11 5 -11 10 0 6 2 10 4 10 3 0 8 -4 11 -10z m-4512 -7 c-7 -2
-21 -2 -30 0 -10 3 -4 5 12 5 17 0 24 -2 18 -5z m1077 -14 c-30 -7 -132 -6
-195 2 -36 5 149 14 190 10 l40 -4 -35 -8z m285 -1 c27 -3 26 -4 -17 -14 l-46
-11 11 24 c6 13 13 19 16 14 3 -5 20 -11 36 -13z m241 3 c37 -14 62 -17 77
-12 24 10 26 9 -48 24 -11 3 12 5 50 6 49 0 65 -2 55 -9 -12 -8 -9 -10 12 -10
14 0 28 5 30 12 3 8 9 8 22 1 27 -15 4 -26 -69 -35 -33 -4 -89 -12 -125 -17
-75 -12 -160 -4 -160 14 0 9 11 10 43 4 48 -9 153 -12 145 -3 -3 3 -34 9 -68
14 -35 5 -68 14 -73 19 -18 18 48 13 109 -8z m1184 9 c19 -12 -116 -12 -145 0
-14 6 4 9 55 9 41 0 82 -4 90 -9z m-1593 -14 c3 -3 -14 -6 -38 -6 -29 0 -39 3
-30 9 15 10 58 8 68 -3z m3353 0 c0 -8 -6 -17 -12 -19 -10 -4 -9 -8 2 -16 13
-9 13 -11 -2 -11 -10 0 -22 9 -28 20 -9 16 -8 20 5 20 8 0 15 5 15 10 0 6 5
10 10 10 6 0 10 -6 10 -14z m140 -15 c0 -5 -8 -7 -18 -4 -10 2 -19 11 -19 18
0 10 5 11 19 4 10 -5 18 -14 18 -18z m890 25 c0 -3 -4 -8 -10 -11 -5 -3 -10
-1 -10 4 0 6 5 11 10 11 6 0 10 -2 10 -4z m-4333 -12 c-3 -3 -12 -4 -19 -1 -8
3 -5 6 6 6 11 1 17 -2 13 -5z m988 -4 c14 -6 -3 -8 -50 -8 -56 1 -63 2 -35 8
48 10 62 10 85 0z m1335 5 c0 -8 -55 -55 -65 -55 -5 0 5 14 23 30 31 29 42 35
42 25z m-4182 -16 c58 2 78 -1 93 -14 10 -10 27 -15 38 -12 10 2 25 0 32 -5 9
-6 -14 -6 -61 -2 -73 7 -90 8 -158 5 l-34 -1 36 -32 c20 -17 36 -37 36 -44 0
-6 10 -18 23 -27 20 -13 11 -15 -113 -20 -116 -5 -298 -14 -684 -34 -66 -4
-87 -2 -81 7 4 6 13 9 19 7 7 -3 64 -1 127 4 63 4 174 11 247 14 73 4 143 8
155 11 12 2 86 5 165 6 78 1 142 5 142 10 0 4 -9 8 -20 8 -11 0 -34 16 -51 35
-27 30 -80 65 -97 65 -2 0 -2 -7 2 -15 6 -16 -15 -21 -28 -7 -4 4 -26 15 -49
25 l-42 17 40 -3 c22 -2 49 -8 59 -12 15 -6 17 -5 11 5 -6 10 -4 12 8 7 10 -4
24 -10 32 -13 9 -4 15 -3 14 2 -4 22 3 26 34 19 17 -4 65 -7 105 -6z m349 5
c-3 -3 -12 -4 -19 -1 -8 3 -5 6 6 6 11 1 17 -2 13 -5z m278 -9 c0 -10 -73 -17
-88 -8 -4 2 -5 9 -1 14 8 13 89 7 89 -6z m430 2 c33 -1 66 -6 74 -11 10 -6 12
-5 7 2 -5 9 10 12 53 12 62 0 92 -15 44 -23 -16 -2 -8 -2 17 0 92 9 230 0 230
-16 0 -4 -12 -7 -27 -6 -16 1 -80 -2 -143 -6 -295 -19 -499 -25 -650 -21 l-95
3 50 14 c27 7 72 13 100 13 27 -1 68 2 89 7 35 7 38 9 22 21 -16 11 -12 13 35
17 30 2 72 2 94 0 22 -2 67 -5 100 -6z m1893 6 c-16 -2 -40 -2 -55 0 -16 2 -3
4 27 4 30 0 43 -2 28 -4z m135 0 c-7 -2 -19 -2 -25 0 -7 3 -2 5 12 5 14 0 19
-2 13 -5z m2117 -3 c0 -5 -7 -10 -16 -10 -8 0 -12 5 -9 10 3 6 10 10 16 10 5
0 9 -4 9 -10z m-5057 -7 c-7 -2 -19 -2 -25 0 -7 3 -2 5 12 5 14 0 19 -2 13 -5z
m652 -3 c4 -6 -9 -10 -32 -9 -38 1 -38 1 -8 9 17 4 31 8 32 9 1 0 5 -3 8 -9z
m588 3 c-7 -2 -19 -2 -25 0 -7 3 -2 5 12 5 14 0 19 -2 13 -5z m117 3 c0 -11
-19 -15 -25 -6 -3 5 1 10 9 10 9 0 16 -2 16 -4z m1763 -3 c-7 -2 -21 -2 -30 0
-10 3 -4 5 12 5 17 0 24 -2 18 -5z m-1638 -13 c17 0 17 -2 5 -10 -12 -8 -9
-10 13 -10 18 0 26 4 21 11 -7 12 5 11 171 -13 58 -9 84 -16 72 -21 -10 -4
-36 -4 -57 -1 -24 4 -40 2 -45 -6 -5 -8 -10 -9 -14 -2 -4 6 -49 12 -105 13
-61 1 -109 7 -125 15 l-26 14 25 0 c20 0 22 2 10 11 -12 8 -10 9 10 5 14 -3
34 -6 45 -6z m762 4 c-3 -3 -12 -4 -19 -1 -8 3 -5 6 6 6 11 1 17 -2 13 -5z
m2363 -4 c0 -5 -4 -10 -9 -10 -6 0 -13 5 -16 10 -3 6 1 10 9 10 9 0 16 -4 16
-10z m566 -16 c-4 -9 -9 -15 -11 -12 -3 3 -3 13 1 22 4 9 9 15 11 12 3 -3 3
-13 -1 -22z m600 -1 c-10 -10 -19 5 -10 18 6 11 8 11 12 0 2 -7 1 -15 -2 -18z
m-5623 0 c-6 -15 -23 -17 -23 -4 0 5 -8 12 -17 14 -10 2 -4 4 13 3 21 -1 30
-5 27 -13z m93 7 c8 0 13 -6 12 -12 -2 -9 18 -13 70 -14 125 -3 92 -14 -39
-14 -90 0 -120 3 -109 11 11 8 12 12 3 16 -27 10 -12 25 18 19 17 -3 38 -6 45
-6z m-717 -4 c-11 -9 -119 -15 -119 -6 0 6 27 10 62 10 34 0 59 -2 57 -4z
m2596 -6 c-3 -5 -10 -10 -16 -10 -5 0 -9 5 -9 10 0 6 7 10 16 10 8 0 12 -4 9
-10z m1030 0 c-19 -8 -19 -9 2 -9 44 -2 31 -19 -19 -26 -36 -5 -53 -4 -56 4
-2 6 -12 11 -22 11 -10 0 -27 3 -37 8 -17 7 46 17 122 20 25 0 27 -1 10 -8z
m1352 4 c-3 -3 -12 -4 -19 -1 -8 3 -5 6 6 6 11 1 17 -2 13 -5z m-5359 -11
c-10 -2 -28 -2 -40 0 -13 2 -5 4 17 4 22 1 32 -1 23 -4z m2245 -23 c-3 -12
-16 -19 -40 -22 -31 -4 -33 -3 -17 9 10 7 21 13 26 13 4 0 8 7 8 15 0 8 6 12
14 9 8 -3 12 -13 9 -24z m673 17 c4 -4 -55 -6 -132 -6 -79 1 -122 5 -99 8 55
9 222 7 231 -2z m249 3 c8 -13 -35 -13 -55 0 -11 7 -7 10 17 10 17 0 35 -4 38
-10z m355 1 c-37 -11 101 -21 237 -17 75 2 113 0 116 -8 7 -18 -172 -24 -308
-11 -38 4 -45 3 -27 -5 30 -13 28 -20 -8 -20 -22 0 -28 4 -24 15 4 10 0 15
-11 15 -9 0 -13 5 -10 10 3 6 1 10 -4 10 -6 0 -11 5 -11 10 0 6 17 10 38 9 32
-1 34 -2 12 -8z m653 2 c-7 -2 -19 -2 -25 0 -7 3 -2 5 12 5 14 0 19 -2 13 -5z
m77 -9 c0 -2 -12 -4 -26 -4 -14 0 -23 4 -20 9 6 8 46 4 46 -5z m1700 -4 c0 -5
-4 -10 -10 -10 -5 0 -10 5 -10 10 0 6 5 10 10 10 6 0 10 -4 10 -10z m-4982 -7
c-10 -2 -26 -2 -35 0 -10 3 -2 5 17 5 19 0 27 -2 18 -5z m-1028 -15 c-56 -11
-170 -16 -170 -6 0 7 71 14 165 15 l50 1 -45 -10z m1107 -4 c-3 -3 -12 -4 -19
-1 -8 3 -5 6 6 6 11 1 17 -2 13 -5z m258 -3 c-6 -6 -25 -6 -45 -1 l-35 8 45 1
c27 1 40 -3 35 -8z m808 2 c-7 -2 -19 -2 -25 0 -7 3 -2 5 12 5 14 0 19 -2 13
-5z m360 0 c-7 -2 -19 -2 -25 0 -7 3 -2 5 12 5 14 0 19 -2 13 -5z m473 -1 c-7
-12 -174 -24 -189 -15 -7 5 17 11 53 14 107 9 141 9 136 1z m41 2 c-3 -3 -12
-4 -19 -1 -8 3 -5 6 6 6 11 1 17 -2 13 -5z m3281 -6 c-3 -7 -11 -13 -18 -13
-7 0 -15 6 -17 13 -3 7 4 12 17 12 13 0 20 -5 18 -12z m-4221 -4 c-3 -3 -12
-4 -19 -1 -8 3 -5 6 6 6 11 1 17 -2 13 -5z m674 -25 c-11 -9 -27 -20 -34 -22
-15 -6 21 -37 43 -36 8 0 4 5 -10 12 -24 10 -23 11 20 16 25 3 58 4 75 2 28
-4 28 -4 7 -12 -30 -11 -28 -23 2 -15 16 4 26 1 30 -9 5 -13 -19 -15 -174 -14
-120 0 -180 3 -180 11 0 5 6 8 13 5 8 -3 20 -2 27 3 10 6 8 11 -8 19 -14 7
-23 8 -27 1 -3 -5 -35 -10 -71 -10 -41 0 -63 4 -59 10 4 6 -8 10 -29 10 -19 0
-38 -4 -41 -10 -8 -13 -95 -13 -115 0 -8 5 -10 10 -5 11 6 0 1 4 -10 8 -16 7
-13 9 19 15 43 8 64 -1 26 -11 l-25 -7 29 -7 c28 -8 79 13 59 23 -4 3 -2 3 5
1 8 -2 46 -6 85 -9 57 -4 68 -3 54 6 -10 7 -27 10 -38 7 -10 -3 -22 0 -26 5
-3 7 -1 8 5 4 7 -4 12 -3 12 2 0 9 228 8 237 -2 4 -3 -11 -6 -33 -6 -33 -1
-36 -2 -20 -11 22 -13 131 6 150 27 6 6 15 9 20 6 5 -3 -1 -13 -13 -23z m1569
16 c-7 -8 -20 -15 -29 -16 -11 0 -12 -2 -3 -6 7 -3 18 0 25 6 8 6 25 7 43 2
l29 -8 -37 -17 c-26 -13 -42 -15 -55 -8 -10 6 -57 12 -105 14 -83 3 -86 4 -67
21 15 14 23 15 38 7 24 -13 101 -13 101 -1 0 6 15 12 33 14 17 2 34 5 36 5 2
1 -2 -5 -9 -13z m-3274 -10 c-4 -13 7 -15 73 -15 54 0 81 4 84 13 4 8 8 9 14
1 12 -17 149 -28 355 -29 102 0 181 -3 175 -7 -14 -9 75 -11 97 -2 9 3 13 10
10 15 -3 5 12 9 33 9 28 0 34 -3 23 -10 -11 -7 1 -10 40 -10 39 0 51 -3 40
-10 -11 -7 -4 -10 25 -10 29 0 36 3 25 10 -13 8 -12 10 3 10 10 0 16 4 13 9
-8 13 26 19 49 9 18 -8 18 -8 -2 -4 -13 2 -23 0 -23 -5 0 -5 18 -9 41 -9 41 0
47 -19 6 -21 -20 -1 -20 -2 3 -9 15 -5 -36 -8 -128 -9 -95 -1 -161 3 -174 10
-14 8 -27 8 -42 1 -35 -17 -67 -21 -91 -12 -29 11 -65 2 -59 -15 4 -10 -6 -11
-42 -7 -34 3 -45 2 -40 -7 4 -6 1 -11 -9 -11 -8 0 -18 7 -21 15 -4 8 -10 13
-14 10 -5 -3 -11 -1 -14 4 -3 5 31 12 76 16 46 4 75 11 67 15 -22 11 -349 20
-349 9 0 -5 -9 -9 -20 -9 -11 0 -20 4 -20 9 0 13 -220 25 -233 12 -8 -8 4 -10
39 -7 38 2 51 0 51 -10 0 -14 -85 -21 -177 -16 -55 3 -64 9 -45 28 9 9 23 13
32 9 15 -5 15 -7 3 -15 -13 -8 -12 -10 3 -10 9 0 25 9 34 20 10 12 30 20 47
20 28 0 29 1 10 15 -18 14 -18 14 10 15 21 0 27 -4 22 -15z m882 8 c-16 -2
-40 -2 -55 0 -16 2 -3 4 27 4 30 0 43 -2 28 -4z m1457 -3 c8 -13 -15 -13 -35
0 -12 8 -11 10 7 10 12 0 25 -4 28 -10z m-3462 -7 c-7 -2 -21 -2 -30 0 -10 3
-4 5 12 5 17 0 24 -2 18 -5z m197 -3 c0 -5 -2 -10 -4 -10 -3 0 -8 5 -11 10 -3
6 -1 10 4 10 6 0 11 -4 11 -10z m1643 3 c-24 -2 -62 -2 -85 0 -24 2 -5 4 42 4
47 0 66 -2 43 -4z m1172 -3 c16 -7 11 -9 -20 -9 -29 -1 -36 2 -25 9 17 11 19
11 45 0z m98 3 c-7 -2 -19 -2 -25 0 -7 3 -2 5 12 5 14 0 19 -2 13 -5z m1043
-8 c14 -13 13 -15 -6 -15 -13 0 -18 4 -15 11 5 7 -7 9 -36 5 -121 -16 -168
-20 -216 -20 -29 0 -53 -3 -53 -8 0 -12 47 -21 76 -14 17 5 23 3 19 -4 -3 -5
-17 -10 -29 -10 -17 0 -23 -5 -22 -17 1 -16 -10 -18 -94 -20 -52 -1 -148 -4
-212 -7 -74 -4 -118 -2 -118 4 0 6 17 11 38 11 34 2 34 2 -13 9 -27 5 -72 9
-100 10 -27 1 -43 4 -35 7 8 3 19 11 23 17 6 8 10 7 14 -1 3 -8 23 -13 51 -13
42 0 44 1 26 15 -18 13 -17 14 19 15 23 0 37 5 37 13 0 8 13 13 35 13 19 0 35
-4 35 -8 0 -4 12 -8 28 -8 15 0 22 4 16 8 -7 4 23 7 66 7 43 0 76 -3 74 -7 -6
-9 141 -1 231 11 98 14 145 12 161 -4z m-891 -15 c3 -4 -2 -13 -9 -20 -12 -9
-21 -8 -42 6 -24 16 -25 19 -8 24 20 8 52 2 59 -10z m1242 4 c-3 -3 -12 -4
-19 -1 -8 3 -5 6 6 6 11 1 17 -2 13 -5z m47 -3 c11 -4 15 -10 9 -14 -5 -3 -19
0 -29 8 -20 15 -11 18 20 6z m2784 -21 c-15 -24 -19 -21 -11 8 3 12 9 19 14
16 5 -3 3 -14 -3 -24z m-6390 13 c-10 -2 -18 -10 -18 -17 0 -11 -9 -11 -42 -2
l-43 11 45 6 c56 7 81 8 58 2z m2039 -9 c-3 -3 -12 -4 -19 -1 -8 3 -5 6 6 6
11 1 17 -2 13 -5z m-1690 -20 c-15 -8 -37 -12 -48 -9 -32 10 -11 25 34 25 l42
-1 -28 -15z m5358 6 c-3 -5 -14 -10 -23 -10 -15 0 -15 2 -2 10 20 13 33 13 25
0z m-5952 -7 c-7 -2 -19 -2 -25 0 -7 3 -2 5 12 5 14 0 19 -2 13 -5z m3402 -3
c-3 -5 -13 -10 -21 -10 -8 0 -14 -4 -14 -10 0 -5 -8 -10 -17 -10 -15 0 -16 2
-3 10 12 8 8 10 -15 11 l-30 1 30 8 c45 11 77 11 70 0z m70 -1 c-8 -11 -55
-12 -55 -1 0 5 14 9 30 10 17 0 28 -4 25 -9z m-3308 -6 c-10 -9 -67 -10 -67 0
0 4 17 7 37 7 20 0 33 -3 30 -7z m683 -3 c0 -5 -9 -10 -21 -10 -11 0 -17 5
-14 10 3 6 13 10 21 10 8 0 14 -4 14 -10z m743 3 c-7 -2 -21 -2 -30 0 -10 3
-4 5 12 5 17 0 24 -2 18 -5z m984 1 c-3 -3 -12 -4 -19 -1 -8 3 -5 6 6 6 11 1
17 -2 13 -5z m693 -9 c-14 -8 -36 -14 -50 -14 -22 0 -20 2 10 13 47 18 71 19
40 1z m-2855 -5 c-3 -5 -12 -10 -20 -10 -8 0 -17 5 -20 10 -4 6 5 10 20 10 15
0 24 -4 20 -10z m355 0 c11 -7 5 -10 -23 -10 -23 0 -36 4 -32 10 8 13 35 13
55 0z m1115 -4 c20 -19 19 -26 -3 -26 -10 0 -26 -6 -37 -14 -27 -18 -194 -14
-206 5 -6 10 -11 11 -16 3 -5 -6 -18 -7 -33 -3 -17 5 -19 7 -7 8 11 1 15 6 11
12 -5 9 7 10 44 5 37 -5 52 -3 52 5 0 8 13 10 39 5 22 -3 42 -3 44 1 10 15 97
14 112 -1z m1882 8 c-3 -3 -12 -4 -19 -1 -8 3 -5 6 6 6 11 1 17 -2 13 -5z
m463 2 c0 -3 -4 -8 -10 -11 -5 -3 -10 -1 -10 4 0 6 5 11 10 11 6 0 10 -2 10
-4z m-823 -12 c-3 -3 -12 -4 -19 -1 -8 3 -5 6 6 6 11 1 17 -2 13 -5z m76 -1
c-7 -2 -21 -2 -30 0 -10 3 -4 5 12 5 17 0 24 -2 18 -5z m115 0 c-16 -2 -40 -2
-55 0 -16 2 -3 4 27 4 30 0 43 -2 28 -4z m-3291 -9 c-3 -3 -12 -4 -19 -1 -8 3
-5 6 6 6 11 1 17 -2 13 -5z m768 -4 c-3 -5 -14 -10 -23 -10 -15 0 -15 2 -2 10
20 13 33 13 25 0z m1072 4 c-3 -3 -12 -4 -19 -1 -8 3 -5 6 6 6 11 1 17 -2 13
-5z m-727 -20 c0 -2 -7 -4 -15 -4 -8 0 -15 4 -15 10 0 5 7 7 15 4 8 -4 15 -8
15 -10z m555 4 c-11 -6 -23 -15 -26 -20 -6 -10 -97 -14 -106 -4 -4 3 2 6 13 7
59 3 78 7 82 18 2 6 16 11 30 11 25 -1 26 -1 7 -12z m233 5 c-10 -2 -26 -2
-35 0 -10 3 -2 5 17 5 19 0 27 -2 18 -5z m250 0 c-10 -2 -26 -2 -35 0 -10 3
-2 5 17 5 19 0 27 -2 18 -5z m-2241 -9 c-3 -3 -12 -4 -19 -1 -8 3 -5 6 6 6 11
1 17 -2 13 -5z m1123 -4 c0 -13 -11 -13 -30 0 -12 8 -11 10 8 10 12 0 22 -4
22 -10z m-1340 -10 c12 -8 11 -10 -6 -10 -16 0 -21 -5 -19 -24 2 -19 -3 -25
-25 -29 -31 -7 -82 12 -77 28 4 10 81 43 102 44 6 1 17 -4 25 -9z m-323 -6
c-7 -8 -97 -7 -105 1 -3 3 21 5 53 5 32 0 56 -3 52 -6z m53 -14 c-11 -20 -60
-29 -60 -10 0 6 11 10 25 10 14 0 25 5 25 10 0 6 5 10 10 10 7 0 7 -6 0 -20z
m110 10 c0 -5 -5 -10 -11 -10 -5 0 -7 5 -4 10 3 6 8 10 11 10 2 0 4 -4 4 -10z
m1323 3 c-7 -2 -19 -2 -25 0 -7 3 -2 5 12 5 14 0 19 -2 13 -5z m127 -3 c0 -5
-11 -10 -25 -10 -14 0 -25 5 -25 10 0 6 11 10 25 10 14 0 25 -4 25 -10z m265
-11 c11 -4 -21 -6 -75 -4 -125 4 -137 7 -65 15 61 7 104 4 140 -11z m145 4
c47 -3 89 -9 95 -14 5 -5 38 -10 75 -10 61 -1 62 -2 25 -10 -58 -12 -293 -11
-300 1 -4 6 14 11 47 12 37 1 43 2 18 5 -57 6 -80 13 -80 24 0 7 7 8 18 4 9
-5 55 -10 102 -12z m320 13 c0 -2 -7 -7 -16 -10 -8 -3 -12 -2 -9 4 6 10 25 14
25 6z m1040 -11 c11 -13 2 -15 -76 -15 -55 0 -84 4 -78 9 8 9 27 12 120 19 12
1 27 -5 34 -13z m636 8 c-11 -11 -48 -14 -41 -3 3 5 16 10 27 10 12 0 18 -3
14 -7z m2371 -20 c-15 -16 -17 -16 -17 -1 0 9 6 18 13 21 20 7 22 -2 4 -20z
m-4722 7 c3 -5 -1 -10 -10 -10 -9 0 -13 5 -10 10 3 6 8 10 10 10 2 0 7 -4 10
-10z m2277 -1 c-28 -11 -28 -26 1 -32 12 -2 -18 -4 -68 -5 -68 0 -82 2 -55 8
19 5 48 6 65 3 28 -6 29 -6 12 11 -9 10 -17 19 -17 20 0 2 19 3 42 3 34 0 38
-1 20 -8z m2771 -7 c-7 -4 -16 -20 -22 -35 -9 -24 -31 -38 -31 -20 0 13 52 74
58 68 4 -3 1 -9 -5 -13z m-6260 -15 c15 3 30 9 33 14 3 5 21 9 41 9 20 0 33
-3 29 -7 -9 -9 -88 -31 -140 -40 -32 -5 -37 -4 -30 8 5 8 9 17 10 22 1 4 2 10
3 15 1 4 7 0 14 -10 9 -11 22 -14 40 -11z m3381 12 c-3 -5 -21 -9 -39 -9 -26
0 -33 -3 -29 -15 8 -20 -11 -19 -36 2 -17 15 -18 19 -5 23 26 9 115 8 109 -1z
m-214 -6 c-31 -3 -40 -7 -30 -14 11 -6 4 -9 -23 -9 -22 0 -36 4 -32 9 3 6 -17
12 -47 14 -29 2 -1 3 62 3 63 0 95 -1 70 -3z m738 0 c-10 -2 -28 -2 -40 0 -13
2 -5 4 17 4 22 1 32 -1 23 -4z m-3094 -12 c4 -5 0 -12 -6 -14 -7 -3 5 -6 27
-7 31 -1 35 -3 20 -9 -26 -11 -87 -2 -79 11 4 6 0 14 -7 19 -10 6 -6 9 13 9
15 0 29 -4 32 -9z m564 2 c-15 -2 -42 -2 -60 0 -18 2 -6 4 27 4 33 0 48 -2 33
-4z m1520 0 c-10 -2 -28 -2 -40 0 -13 2 -5 4 17 4 22 1 32 -1 23 -4z m705 0
c-13 -2 -33 -2 -45 0 -13 2 -3 4 22 4 25 0 35 -2 23 -4z m-4313 -13 c-19 -13
-30 -13 -30 0 0 6 10 10 23 10 18 0 19 -2 7 -10z m200 -4 c8 -2 -19 -4 -60 -4
-43 0 -65 3 -51 7 23 6 75 5 111 -3z m1240 5 c0 -4 -11 -6 -25 -3 -14 2 -25 6
-25 8 0 2 11 4 25 4 14 0 25 -4 25 -9z m2233 2 c-7 -2 -19 -2 -25 0 -7 3 -2 5
12 5 14 0 19 -2 13 -5z m307 -3 c0 -5 -12 -10 -27 -9 -25 0 -26 1 -8 9 27 12
35 12 35 0z m2645 0 c-3 -5 -11 -10 -16 -10 -6 0 -7 5 -4 10 3 6 11 10 16 10
6 0 7 -4 4 -10z m-6758 -6 c-3 -3 -12 -4 -19 -1 -8 3 -5 6 6 6 11 1 17 -2 13
-5z m511 -1 c-21 -2 -57 -2 -80 0 -24 2 -7 4 37 4 44 0 63 -2 43 -4z m57 -3
c3 -5 1 -10 -4 -10 -6 0 -11 5 -11 10 0 6 2 10 4 10 3 0 8 -4 11 -10z m448 3
c-7 -2 -19 -2 -25 0 -7 3 -2 5 12 5 14 0 19 -2 13 -5z m-1253 -19 c0 -2 -12
-4 -27 -4 -21 0 -24 3 -14 9 13 8 41 5 41 -5z m1000 6 c0 -6 -19 -7 -47 -3
-65 8 -67 13 -5 13 29 0 52 -4 52 -10z m390 -4 c45 -14 36 -16 -55 -11 -55 3
-137 5 -182 5 -46 0 -83 3 -83 8 0 8 295 6 320 -2z m-840 -6 c0 -15 -42 -34
-85 -36 -22 -1 -57 -5 -77 -8 -22 -4 -38 -2 -38 4 0 6 -10 11 -22 11 -38 3 84
19 134 19 25 -1 49 4 53 10 8 13 35 13 35 0z m1535 0 c4 -6 -7 -10 -27 -10
-25 0 -29 3 -18 10 19 13 37 13 45 0z m5185 6 c0 -3 -4 -8 -10 -11 -5 -3 -10
-1 -10 4 0 6 5 11 10 11 6 0 10 -2 10 -4z m-6397 -13 c-13 -2 -33 -2 -45 0
-13 2 -3 4 22 4 25 0 35 -2 23 -4z m726 -9 c8 -7 -114 -2 -139 6 -14 4 11 5
55 2 44 -2 82 -6 84 -8z m564 9 c-7 -2 -21 -2 -30 0 -10 3 -4 5 12 5 17 0 24
-2 18 -5z m2830 0 c-7 -2 -19 -2 -25 0 -7 3 -2 5 12 5 14 0 19 -2 13 -5z
m-3283 -12 c0 -4 35 -9 77 -10 111 -3 104 -11 -10 -11 -82 0 -95 2 -91 15 7
16 24 21 24 6z m-1013 -17 c-3 -3 -12 -4 -19 -1 -8 3 -5 6 6 6 11 1 17 -2 13
-5z m-74 -11 c-7 -2 -19 -2 -25 0 -7 3 -2 5 12 5 14 0 19 -2 13 -5z m610 0
c-7 -2 -19 -2 -25 0 -7 3 -2 5 12 5 14 0 19 -2 13 -5z m54 -9 c-3 -3 -12 -4
-19 -1 -8 3 -5 6 6 6 11 1 17 -2 13 -5z m3419 -1 c-10 -11 -36 -12 -36 -2 0 5
10 9 22 9 12 0 18 -3 14 -7z m-2818 -10 c-21 -2 -57 -2 -80 0 -24 2 -7 4 37 4
44 0 63 -2 43 -4z m-853 -48 l90 -14 -102 3 c-56 2 -110 9 -120 15 -16 9 -14
10 12 10 17 0 71 -7 120 -14z m6169 -20 c3 -10 -2 -12 -17 -8 -12 3 -30 6 -39
6 -18 1 -23 9 -13 19 9 9 64 -4 69 -17z m-5381 8 c-13 -2 -33 -2 -45 0 -13 2
-3 4 22 4 25 0 35 -2 23 -4z"/>
<path d="M2385 6110 c-3 -5 3 -10 15 -10 12 0 18 5 15 10 -3 6 -10 10 -15 10
-5 0 -12 -4 -15 -10z"/>
<path d="M5750 3020 c0 -5 5 -10 10 -10 6 0 10 5 10 10 0 6 -4 10 -10 10 -5 0
-10 -4 -10 -10z"/>
<path d="M5340 2894 c0 -8 5 -12 10 -9 6 3 10 10 10 16 0 5 -4 9 -10 9 -5 0
-10 -7 -10 -16z"/>
<path d="M5430 2290 c0 -5 5 -10 10 -10 6 0 10 5 10 10 0 6 -4 10 -10 10 -5 0
-10 -4 -10 -10z"/>
<path d="M5125 2170 c-3 -5 -2 -10 4 -10 5 0 13 5 16 10 3 6 2 10 -4 10 -5 0
-13 -4 -16 -10z"/>
<path d="M5365 2119 c-4 -6 -5 -13 -2 -16 7 -7 27 6 27 18 0 12 -17 12 -25 -2z"/>
<path d="M5125 1579 c-9 -14 -2 -20 14 -10 8 6 9 11 3 15 -6 3 -14 1 -17 -5z"/>
<path d="M5121 1504 c0 -11 3 -14 6 -6 3 7 2 16 -1 19 -3 4 -6 -2 -5 -13z"/>
<path d="M596 1500 c-13 -4 -16 -9 -8 -14 7 -4 19 -3 28 2 21 12 5 22 -20 12z"/>
<path d="M850 1439 c0 -5 5 -7 10 -4 6 3 10 8 10 11 0 2 -4 4 -10 4 -5 0 -10
-5 -10 -11z"/>
<path d="M678 1433 c12 -2 32 -2 45 0 12 2 2 4 -23 4 -25 0 -35 -2 -22 -4z"/>
<path d="M1103 1333 c9 -2 23 -2 30 0 6 3 -1 5 -18 5 -16 0 -22 -2 -12 -5z"/>
<path d="M575 1319 c-3 -4 2 -6 10 -5 21 3 28 13 10 13 -9 0 -18 -4 -20 -8z"/>
<path d="M740 1280 c0 -5 4 -10 9 -10 6 0 13 5 16 10 3 6 -1 10 -9 10 -9 0
-16 -4 -16 -10z"/>
<path d="M5115 940 c-3 -5 -1 -10 4 -10 6 0 11 5 11 10 0 6 -2 10 -4 10 -3 0
-8 -4 -11 -10z"/>
<path d="M2368 953 c7 -3 16 -2 19 1 4 3 -2 6 -13 5 -11 0 -14 -3 -6 -6z"/>
<path d="M5670 515 c0 -19 9 -19 34 0 19 14 19 15 -7 15 -17 0 -27 -5 -27 -15z"/>
<path d="M2170 482 c0 -4 -15 -8 -32 -9 -61 -2 -64 -2 -50 -12 19 -12 222 -13
222 -1 0 6 -25 10 -55 10 -30 0 -55 5 -55 10 0 6 -7 10 -15 10 -8 0 -15 -4
-15 -8z"/>
<path d="M3028 363 c6 -2 18 -2 25 0 6 3 1 5 -13 5 -14 0 -19 -2 -12 -5z"/>
<path d="M3079 341 c13 -8 100 -5 110 4 2 3 -25 5 -60 5 -40 0 -59 -4 -50 -9z"/>
<path d="M2405 330 c-3 -6 5 -10 19 -10 14 0 28 5 31 10 3 6 -5 10 -19 10 -14
0 -28 -4 -31 -10z"/>
<path d="M2188 323 c6 -2 18 -2 25 0 6 3 1 5 -13 5 -14 0 -19 -2 -12 -5z"/>
<path d="M2338 323 c7 -3 16 -2 19 1 4 3 -2 6 -13 5 -11 0 -14 -3 -6 -6z"/>
<path d="M2568 323 c7 -3 16 -2 19 1 4 3 -2 6 -13 5 -11 0 -14 -3 -6 -6z"/>
<path d="M4145 340 c-37 -4 -45 -8 -32 -14 22 -10 109 2 102 15 -4 5 -9 8 -13
7 -4 0 -29 -4 -57 -8z"/>
<path d="M3943 333 c9 -2 25 -2 35 0 9 3 1 5 -18 5 -19 0 -27 -2 -17 -5z"/>
<path d="M4013 315 c0 -11 13 -15 51 -14 39 1 45 2 26 8 -65 20 -77 21 -77 6z"/>
<path d="M2853 263 c9 -2 23 -2 30 0 6 3 -1 5 -18 5 -16 0 -22 -2 -12 -5z"/>
<path d="M2848 213 c7 -3 16 -2 19 1 4 3 -2 6 -13 5 -11 0 -14 -3 -6 -6z"/>
<path d="M5302 5580 c-7 -11 -9 -20 -4 -20 4 0 13 9 20 20 7 11 9 20 4 20 -4
0 -13 -9 -20 -20z"/>
<path d="M5320 5390 c0 -5 5 -10 10 -10 6 0 10 5 10 10 0 6 -4 10 -10 10 -5 0
-10 -4 -10 -10z"/>
<path d="M4875 5190 c-10 -11 -14 -20 -8 -20 5 0 18 9 28 20 10 11 14 20 8 20
-5 0 -18 -9 -28 -20z"/>
<path d="M4860 5149 c0 -5 5 -7 10 -4 6 3 10 8 10 11 0 2 -4 4 -10 4 -5 0 -10
-5 -10 -11z"/>
<path d="M4900 5029 c0 -10 5 -21 10 -24 17 -11 50 6 50 25 0 14 -7 18 -30 18
-22 -1 -30 -6 -30 -19z"/>
<path d="M4830 4880 c-13 -8 -12 -10 3 -10 9 0 17 5 17 10 0 12 -1 12 -20 0z"/>
<path d="M4995 4870 c-3 -5 -1 -10 4 -10 6 0 11 5 11 10 0 6 -2 10 -4 10 -3 0
-8 -4 -11 -10z"/>
<path d="M4708 4813 c-1 -27 -1 -60 0 -75 2 -30 -4 -33 -28 -18 -18 11 -30 -5
-30 -43 0 -17 4 -26 10 -22 6 4 8 16 4 28 -6 19 -3 19 20 -6 25 -27 53 -28 42
-2 -5 15 25 78 52 109 31 34 34 45 18 61 -13 13 -15 12 -18 -12 l-3 -28 -26
28 c-15 15 -29 27 -33 27 -3 0 -7 -21 -8 -47z"/>
<path d="M4895 4763 c-41 -10 -41 -26 -1 -20 42 7 76 28 41 26 -11 -1 -29 -3
-40 -6z"/>
<path d="M4584 4618 c-3 -5 -9 -6 -14 -3 -13 8 -50 -44 -43 -61 3 -8 0 -14 -6
-14 -5 0 -15 -9 -21 -20 -15 -28 2 -25 36 7 16 15 32 26 37 25 4 -1 7 5 7 13
0 8 7 15 15 15 20 0 75 28 75 38 0 10 -80 10 -86 0z m16 -13 c-7 -8 -20 -15
-29 -15 -11 1 -8 5 9 15 32 18 35 18 20 0z"/>
<path d="M4720 4620 c-20 -12 -10 -19 14 -10 11 3 15 9 10 13 -6 3 -16 2 -24
-3z"/>
<path d="M4805 4560 c-10 -32 6 -46 21 -19 17 31 17 39 0 39 -8 0 -17 -9 -21
-20z"/>
<path d="M4341 4532 c-6 -11 -11 -26 -11 -33 0 -7 -12 -25 -26 -40 -27 -29
-29 -41 -17 -129 l8 -55 13 41 c8 28 25 51 49 70 40 30 59 48 83 79 14 17 13
18 -9 12 -30 -7 -61 8 -61 31 0 9 -4 23 -9 31 -7 11 -11 10 -20 -7z"/>
<path d="M4655 4402 c-17 -10 -36 -17 -43 -14 -6 2 -12 -1 -12 -6 0 -6 -3 -19
-7 -29 -6 -16 -5 -17 12 -3 14 11 19 12 22 3 8 -22 23 -14 23 12 0 14 4 25 8
25 12 0 49 29 37 30 -5 0 -24 -8 -40 -18z"/>
<path d="M4419 4310 l-24 -20 28 11 c15 7 27 16 27 21 0 12 -5 10 -31 -12z"/>
<path d="M3665 4270 c3 -5 11 -10 16 -10 6 0 7 5 4 10 -3 6 -11 10 -16 10 -6
0 -7 -4 -4 -10z"/>
<path d="M4023 4215 c-36 -32 -17 -32 22 0 17 13 25 24 18 25 -7 0 -25 -11
-40 -25z"/>
<path d="M4348 4115 c-3 -14 -2 -25 2 -25 11 0 20 39 10 45 -4 3 -10 -6 -12
-20z"/>
<path d="M3085 3760 c-3 -5 3 -10 15 -10 12 0 18 5 15 10 -3 6 -10 10 -15 10
-5 0 -12 -4 -15 -10z"/>
<path d="M3270 3690 c0 -5 5 -10 10 -10 6 0 10 5 10 10 0 6 -4 10 -10 10 -5 0
-10 -4 -10 -10z"/>
<path d="M2920 3676 c0 -9 5 -16 10 -16 6 0 10 4 10 9 0 6 -4 13 -10 16 -5 3
-10 -1 -10 -9z"/>
<path d="M3325 3680 c-3 -5 -1 -10 4 -10 6 0 11 5 11 10 0 6 -2 10 -4 10 -3 0
-8 -4 -11 -10z"/>
<path d="M3130 3665 c0 -17 2 -18 24 -9 23 9 20 24 -4 24 -11 0 -20 -7 -20
-15z"/>
<path d="M3245 3660 c-3 -5 1 -10 9 -10 9 0 16 5 16 10 0 6 -4 10 -9 10 -6 0
-13 -4 -16 -10z"/>
<path d="M3365 3660 c-3 -5 -1 -10 4 -10 6 0 11 5 11 10 0 6 -2 10 -4 10 -3 0
-8 -4 -11 -10z"/>
<path d="M3460 3370 c0 -5 5 -10 11 -10 5 0 7 5 4 10 -3 6 -8 10 -11 10 -2 0
-4 -4 -4 -10z"/>
<path d="M3480 3200 c0 -5 5 -10 11 -10 5 0 7 5 4 10 -3 6 -8 10 -11 10 -2 0
-4 -4 -4 -10z"/>
<path d="M3128 3130 c-40 -22 -57 -40 -35 -40 7 0 29 14 47 30 39 35 38 36
-12 10z"/>
<path d="M3270 3118 c0 -4 7 -8 15 -8 8 0 15 4 15 8 0 5 -7 9 -15 9 -8 0 -15
-4 -15 -9z"/>
<path d="M3027 3046 c-21 -16 -21 -22 -1 -30 9 -4 13 -2 8 5 -4 6 0 15 7 20 7
4 11 10 9 13 -3 2 -13 -1 -23 -8z"/>
<path d="M4546 2877 c-14 -15 -26 -34 -25 -44 0 -14 2 -13 9 5 5 12 14 22 20
22 6 0 8 -4 5 -10 -3 -5 -4 -10 0 -10 8 0 27 52 21 57 -3 3 -16 -6 -30 -20z"/>
<path d="M5336 2633 c-8 -19 8 -40 18 -24 4 6 3 11 -3 11 -6 0 -8 7 -5 15 4 8
4 15 1 15 -3 0 -8 -8 -11 -17z"/>
<path d="M5290 2606 c0 -14 5 -28 11 -31 17 -11 23 3 9 20 -8 10 -9 15 -1 15
6 0 11 5 11 10 0 6 -7 10 -15 10 -9 0 -15 -9 -15 -24z"/>
<path d="M2625 2560 c-3 -5 1 -10 9 -10 9 0 16 5 16 10 0 6 -4 10 -9 10 -6 0
-13 -4 -16 -10z"/>
<path d="M5185 2539 c-10 -15 3 -25 16 -12 7 7 7 13 1 17 -6 3 -14 1 -17 -5z"/>
<path d="M5087 2503 c-4 -3 -1 -15 5 -27 6 -11 10 -22 9 -24 -2 -2 0 -6 3 -9
3 -4 6 8 6 25 0 30 -11 47 -23 35z"/>
<path d="M5071 2423 c-1 -18 4 -33 9 -33 12 0 12 17 0 45 -7 17 -9 15 -9 -12z"/>
<path d="M5163 2438 c-24 -31 -27 -42 -9 -35 14 6 17 3 12 -8 -3 -9 -2 -13 4
-10 6 3 10 1 10 -5 0 -19 23 -6 26 14 3 19 -15 56 -27 56 -4 0 -11 -6 -16 -12z"/>
<path d="M5140 2350 c0 -5 7 -7 15 -4 8 4 15 8 15 10 0 2 -7 4 -15 4 -8 0 -15
-4 -15 -10z"/>
<path d="M5166 2315 c-3 -8 -1 -15 4 -15 6 0 10 7 10 15 0 8 -2 15 -4 15 -2 0
-6 -7 -10 -15z"/>
<path d="M3556 1721 c-3 -5 1 -14 10 -21 12 -10 17 -11 27 -1 9 10 8 11 -7 5
-13 -5 -17 -4 -12 4 3 6 2 13 -3 16 -5 4 -12 2 -15 -3z"/>
<path d="M3639 1603 c-13 -16 -12 -17 4 -4 16 13 21 21 13 21 -2 0 -10 -8 -17
-17z"/>
<path d="M3580 1564 c0 -6 8 -18 18 -27 15 -14 19 -15 19 -2 0 8 -4 12 -8 9
-4 -2 -12 4 -18 13 -6 10 -11 13 -11 7z"/>
<path d="M4215 1514 c22 -16 35 -18 35 -5 0 5 -12 11 -27 14 -26 5 -26 4 -8
-9z"/>
<path d="M4143 1445 c0 -6 6 -12 12 -12 6 0 12 6 12 12 0 6 -6 12 -12 12 -6 0
-12 -6 -12 -12z"/>
<path d="M4248 1443 c7 -3 16 -2 19 1 4 3 -2 6 -13 5 -11 0 -14 -3 -6 -6z"/>
<path d="M4496 1431 c-3 -5 1 -11 9 -15 8 -3 15 -1 15 4 0 13 -18 22 -24 11z"/>
<path d="M4180 1390 c30 -4 64 -3 75 1 12 5 -10 7 -55 7 l-75 -1 55 -7z"/>
<path d="M4338 1343 c6 -2 18 -2 25 0 6 3 1 5 -13 5 -14 0 -19 -2 -12 -5z"/>
<path d="M4093 1313 c9 -2 23 -2 30 0 6 3 -1 5 -18 5 -16 0 -22 -2 -12 -5z"/>
<path d="M3717 1290 c-20 -4 -40 -9 -43 -13 -9 -9 80 5 91 14 10 10 7 10 -48
-1z"/>
<path d="M3718 1253 c12 -2 32 -2 45 0 12 2 2 4 -23 4 -25 0 -35 -2 -22 -4z"/>
<path d="M3518 1223 c7 -3 16 -2 19 1 4 3 -2 6 -13 5 -11 0 -14 -3 -6 -6z"/>
<path d="M3643 1212 c27 -29 20 -35 -33 -30 -27 3 -47 1 -44 -4 3 -4 -7 -8
-23 -8 -22 0 -25 2 -13 10 11 7 -1 10 -39 10 -71 0 -60 -9 31 -26 92 -18 134
-18 141 0 7 18 61 25 82 10 15 -11 14 -13 -7 -17 -13 -2 -6 -5 19 -6 35 -1 45
3 63 28 11 16 17 32 12 35 -13 8 -124 8 -149 0 -14 -4 -23 -2 -23 5 0 6 -7 11
-17 11 -15 0 -15 -1 0 -18z m-30 -49 c-7 -2 -21 -2 -30 0 -10 3 -4 5 12 5 17
0 24 -2 18 -5z"/>
<path d="M3383 1213 c15 -2 37 -2 50 0 12 2 0 4 -28 4 -27 0 -38 -2 -22 -4z"/>
<path d="M3915 1199 c-16 -6 -14 -8 13 -8 33 -1 41 4 20 12 -7 2 -22 1 -33 -4z"/>
<path d="M4005 1198 c9 -6 30 -8 46 -6 16 3 29 0 29 -5 0 -5 6 -5 13 1 7 6 18
8 24 4 6 -4 37 -5 68 -3 97 5 41 18 -82 18 -80 0 -110 -3 -98 -9z"/>
<path d="M4285 1200 c3 -5 16 -10 28 -10 18 0 19 2 7 10 -20 13 -43 13 -35 0z"/>
<path d="M3840 1166 c6 -6 45 -12 88 -13 94 -3 84 4 -21 15 -53 6 -74 5 -67
-2z"/>
<path d="M4580 1170 c-12 -8 -10 -10 8 -10 13 0 20 4 17 10 -7 12 -6 12 -25 0z"/>
<path d="M4158 1165 c-3 -3 -33 -6 -67 -7 -108 -3 -41 -16 76 -15 91 1 110 3
101 14 -10 12 -99 19 -110 8z"/>
<path d="M4182 1100 c16 -10 96 -6 106 5 3 3 -24 5 -59 5 -47 -1 -60 -3 -47
-10z"/>
<path d="M4343 1103 c9 -2 23 -2 30 0 6 3 -1 5 -18 5 -16 0 -22 -2 -12 -5z"/>
<path d="M4635 1099 c39 -4 93 -4 120 0 40 7 27 9 -70 9 -113 -1 -116 -1 -50
-9z"/>
<path d="M4145 1070 l-30 -8 27 -1 c15 0 30 4 33 9 3 6 5 9 3 9 -2 -1 -16 -5
-33 -9z"/>
<path d="M4048 1063 c7 -3 16 -2 19 1 4 3 -2 6 -13 5 -11 0 -14 -3 -6 -6z"/>
<path d="M4330 1050 c-8 -5 -10 -10 -5 -10 6 0 17 5 25 10 8 5 11 10 5 10 -5
0 -17 -5 -25 -10z"/>
<path d="M4420 1040 c20 -13 33 -13 25 0 -3 6 -14 10 -23 10 -15 0 -15 -2 -2
-10z"/>
<path d="M4071 1005 c10 -10 79 -8 91 3 4 4 -17 7 -47 7 -35 0 -51 -3 -44 -10z"/>
<path d="M4585 1005 c-44 -7 -73 -14 -65 -15 35 -6 139 3 190 15 l55 13 -50 0
c-27 -1 -86 -6 -130 -13z"/>
<path d="M4348 993 c12 -2 30 -2 40 0 9 3 -1 5 -23 4 -22 0 -30 -2 -17 -4z"/>
<path d="M4468 993 c6 -2 18 -2 25 0 6 3 1 5 -13 5 -14 0 -19 -2 -12 -5z"/>
<path d="M4188 983 c7 -3 16 -2 19 1 4 3 -2 6 -13 5 -11 0 -14 -3 -6 -6z"/>
<path d="M3650 970 c-8 -5 -10 -10 -5 -10 6 0 17 5 25 10 8 5 11 10 5 10 -5 0
-17 -5 -25 -10z"/>
<path d="M4658 960 c-47 -3 -90 -8 -94 -12 -11 -12 150 -13 189 -2 20 6 23 21
5 20 -7 -1 -52 -3 -100 -6z"/>
<path d="M4280 950 c0 -5 7 -7 15 -4 8 4 15 8 15 10 0 2 -7 4 -15 4 -8 0 -15
-4 -15 -10z"/>
<path d="M4563 923 c9 -2 23 -2 30 0 6 3 -1 5 -18 5 -16 0 -22 -2 -12 -5z"/>
<path d="M4188 903 c7 -3 16 -2 19 1 4 3 -2 6 -13 5 -11 0 -14 -3 -6 -6z"/>
<path d="M4355 850 c11 -5 29 -9 40 -9 l20 0 -20 9 c-11 5 -29 9 -40 9 l-20 0
20 -9z"/>
<path d="M3408 843 c7 -3 16 -2 19 1 4 3 -2 6 -13 5 -11 0 -14 -3 -6 -6z"/>
<path d="M3638 833 c6 -2 18 -2 25 0 6 3 1 5 -13 5 -14 0 -19 -2 -12 -5z"/>
<path d="M4180 829 c-52 -5 -101 -7 -107 -4 -7 2 -13 0 -13 -5 0 -6 -33 -11
-72 -11 -40 -1 -62 -4 -48 -7 l25 -5 -25 -7 c-23 -7 -24 -8 -5 -14 11 -4 28
-12 37 -17 10 -5 64 -9 121 -9 90 0 107 3 127 20 l23 20 -44 1 c-41 1 -39 2
26 15 38 7 80 12 93 9 13 -2 33 0 45 5 19 8 17 9 -13 10 -19 0 -44 2 -55 4
-11 2 -63 0 -115 -5z m-51 -35 c10 -3 11 -8 3 -16 -16 -16 -83 -1 -76 17 6 14
27 14 73 -1z m-104 -24 c-3 -5 -13 -10 -21 -10 -8 0 -12 5 -9 10 3 6 13 10 21
10 8 0 12 -4 9 -10z m162 -6 c-3 -3 -12 -4 -19 -1 -8 3 -5 6 6 6 11 1 17 -2
13 -5z"/>
<path d="M4425 829 c-33 -6 -29 -7 23 -4 35 1 66 6 69 9 8 8 -41 5 -92 -5z"/>
<path d="M4550 800 c27 -17 1 -22 -111 -21 -127 2 -141 -4 -29 -12 41 -3 80
-6 85 -7 28 -6 115 1 115 10 0 6 -6 10 -14 10 -8 0 -16 7 -20 15 -3 8 -13 15
-23 15 -15 0 -16 -2 -3 -10z"/>
<path d="M3602 775 c-11 -13 -8 -15 18 -15 32 0 40 14 14 24 -19 7 -16 8 -32
-9z"/>
</g>
</svg>
